<svg xmlns="http://www.w3.org/2000/svg" viewBox="0 0 181.773 104.988" enable-background="new 0 0 181.773 104.988"><g fill="#ccc"><path d="M10.08 19.383h.09l13.423 21.605h7.096V8.718h-6.644v21.648h-.09l-13.47-21.65h-7.05V40.99h6.643zM49.743 41.756c3.12 0 6.373-1.22 8.86-4.43l.722 3.662h4.52V23.542h-13.56v5.288h7.142c-.407 4.475-3.073 6.96-7.684 6.96-6.373 0-8.768-5.424-8.768-10.802 0-5.65 2.395-11.074 8.768-11.074 3.345 0 6.01 1.853 6.825 5.424h6.78c-.768-7.322-7.006-11.39-13.604-11.39-9.99 0-15.864 7.458-15.864 17.04-.002 9.31 5.874 16.768 15.863 16.768zM98.124 24.988c0-9.582-5.875-17.04-15.864-17.04-9.99 0-15.864 7.458-15.864 17.04 0 9.31 5.876 16.768 15.864 16.768s15.864-7.458 15.864-16.768zm-24.633 0c0-5.65 2.396-11.074 8.77-11.074 6.372 0 8.767 5.424 8.767 11.074 0 5.378-2.396 10.802-8.768 10.802-6.373 0-8.77-5.424-8.77-10.802zM12.25 45.903L0 78.173h7.186l2.53-7.185h12.07l2.44 7.186h7.367l-12.067-32.27H12.25zM11.57 65.7l4.204-11.842h.09l4.068 11.84h-8.36zM32.73 45.903h6.418v5.288H32.73zM32.73 54.808h6.418v23.366H32.73zM59.184 57.654h-.09c-1.446-2.305-4.158-3.48-6.915-3.48-6.87 0-10.35 5.83-10.35 12.113 0 6.463 3.434 12.52 10.485 12.52 2.983 0 5.604-1.084 7.096-3.616h.09v2.984h6.103v-32.27h-6.418v11.75zM53.896 73.97c-3.978 0-5.65-3.84-5.65-7.502 0-3.842 1.446-7.457 5.65-7.457 4.158 0 5.514 3.616 5.514 7.412 0 3.842-1.266 7.55-5.514 7.55zM112.786 78.174v-32.27h-9.988l-7.143 22.192h-.09l-7.548-22.193H78.03v32.27h6.643V55.53h.09l7.91 22.644h5.468l7.91-22.87h.092v22.87zM138.753 78.174c-.588-.948-.813-3.073-.813-5.197v-12.16c0-5.603-5.605-6.643-10.26-6.643-5.244 0-10.622 1.808-10.984 7.82h6.417c.226-2.532 1.808-3.526 4.25-3.526 2.26 0 4.157.406 4.157 3.164 0 2.62-3.66 2.485-7.592 3.073-3.978.542-7.955 1.808-7.955 7.097 0 4.79 3.526 7.006 7.955 7.006 2.846 0 5.83-.77 7.864-2.893.046.77.225 1.536.45 2.26h6.51zm-7.232-9.04c0 1.402-.18 5.38-5.196 5.38-2.08 0-3.933-.59-3.933-2.984 0-2.35 1.81-3.03 3.8-3.434 1.987-.362 4.246-.407 5.332-1.357v2.395zM148.03 75.282h.092c1.536 2.305 4.203 3.526 7.006 3.526 6.825 0 10.26-5.83 10.26-12.07 0-6.643-3.3-12.564-10.622-12.564-2.893 0-5.424 1.13-6.96 3.617h-.09V54.81h-6.102V86.4h6.418V75.282zm5.334-16.27c4.112 0 5.604 3.84 5.604 7.547 0 3.795-1.356 7.41-5.56 7.41-4.158 0-5.603-3.615-5.603-7.41 0-3.798 1.356-7.55 5.56-7.55zM95.39 89.987l-3.32 8.496h1.165l.952-2.558h3.594l.93 2.558h1.25l-3.32-8.496h-1.25zm-.846 4.987l1.44-3.964h.024l1.416 3.964h-2.88zM103.518 92.19c-.88 0-1.572.356-2 1.117h-.023v-.975h-.953v6.15h1.012V95.01c0-1.108.595-1.928 1.822-1.928.773 0 1.248.488 1.248 1.237v4.164h1.01v-4.046c0-1.32-.5-2.248-2.116-2.248zM141.817 89.987h1.13v8.496h-1.13zM147.38 92.19c-.88 0-1.57.356-2 1.117h-.022v-.975h-.95v6.15h1.01V95.01c0-1.108.594-1.928 1.82-1.928.773 0 1.25.488 1.25 1.237v4.164h1.01v-4.046c0-1.32-.5-2.248-2.117-2.248zM150.81 92.332h1.01v6.15h-1.01zM150.81 89.987h1.01v1.238h-1.01zM154.56 90.487h-1.012v1.845H152.5v.892h1.048v3.915c0 1.13.418 1.343 1.464 1.343h.773v-.892h-.465c-.63 0-.762-.08-.762-.546v-3.82h1.226v-.892h-1.226v-1.845zM156.647 89.987h1.012v1.238h-1.013zM156.647 92.332h1.012v6.15h-1.013zM163.802 97.044V93.88c0-1.44-1.2-1.69-2.308-1.69-1.37 0-2.546.535-2.607 2.058h1.012c.048-.904.678-1.166 1.535-1.166.642 0 1.367.143 1.367 1.023 0 .762-.95.69-2.07.904-1.047.2-2.082.5-2.082 1.89 0 1.226.916 1.726 2.035 1.726.856 0 1.605-.297 2.166-.95 0 .665.333.95.857.95.322 0 .548-.06.726-.166v-.785c-.13.047-.226.06-.31.06-.32 0-.32-.214-.32-.69zm-1.012-.703c0 .56-.547 1.393-1.88 1.393-.617 0-1.19-.238-1.19-.904 0-.75.573-.99 1.24-1.108.677-.118 1.438-.13 1.83-.416v1.035zM166.526 90.487h-1.012v1.845h-1.047v.892h1.047v3.915c0 1.13.416 1.343 1.463 1.343h.773v-.892h-.463c-.63 0-.762-.08-.762-.546v-3.82h1.225v-.892h-1.225v-1.845zM168.614 92.332h1.012v6.15h-1.012zM168.614 89.987h1.012v1.238h-1.012zM173.215 97.46h-.023l-1.726-5.128h-1.13l2.285 6.152h1.083l2.25-6.152h-1.06zM179.08 97.734c-1.344 0-1.95-.95-1.916-2.023h4.605c.06-1.485-.607-3.52-2.786-3.52-1.678 0-2.89 1.356-2.89 3.2.06 1.88.986 3.237 2.95 3.237 1.382 0 2.356-.737 2.63-2.094h-1c-.178.796-.76 1.2-1.594 1.2zm-.154-4.652c1 0 1.726.773 1.773 1.736h-3.535c.072-.94.702-1.736 1.76-1.736zM121.39 85.06c-4.52 0-8.345 3.03-9.558 7.162h2.238c1.13-2.942 3.985-5.037 7.322-5.037 3.334 0 6.19 2.095 7.32 5.037h2.238c-1.21-4.133-5.037-7.163-9.56-7.163zM122.37 104.938c4-.393 7.31-3.16 8.505-6.87h-2.213c-1.06 2.94-3.496 5.653-6.292 6.87zM125.392 92.222h2.203c-1.104-3.057-4.06-4.187-5.977-4.187 1.722.877 3.076 2.37 3.774 4.187zM117.845 102.01c-1.64-.837-2.948-2.235-3.67-3.94h-2.23c1.276 3.197 4.576 3.94 5.9 3.94zM117.093 85.108c-4.887.48-8.746 4.503-8.97 9.46h2.128c.203-2.922 2.477-7.56 6.843-9.46zM127.56 98.07h-2.27c-1.19 2.81-3.977 4.79-7.217 4.79-4.147 0-7.55-3.235-7.82-7.32h-2.128c.27 5.256 4.628 9.45 9.948 9.45 4.43-.002 8.195-2.91 9.486-6.92zM111.737 93.144h.99v3.98h-.99zM113.22 94.19v2.935h.868v-1.59c0-.367 0-.733.455-.733.17 0 .322.07.39.226.035.078.04.172.04.438v1.658h.862V95.11c0-.456-.08-.72-.39-.883-.152-.085-.35-.12-.525-.12-.207 0-.4.05-.534.108-.152.073-.21.138-.294.23v-.258h-.872zM117.925 94.78v-.53h-.57v-.918h-.862v.91h-.43v.533h.43v1.417c0 .284.005.49.124.667.187.27.513.286.813.286.157 0 .27-.016.456-.046v-.676l-.31.01c-.232 0-.232-.15-.227-.33v-1.327h.575zM120.665 94.51c-.377-.406-.884-.422-1.06-.422-1.16 0-1.51.91-1.51 1.623 0 .964.615 1.523 1.49 1.523.472 0 .855-.182 1.11-.416.15-.143.252-.29.354-.44l-.655-.333c-.107.207-.27.518-.743.518-.468 0-.678-.367-.673-.734h2.102c-.01-.332-.035-.908-.417-1.318zm-1.68.777c.03-.123.056-.26.174-.39.083-.09.23-.193.44-.193.15 0 .314.057.422.166.124.128.146.293.162.416h-1.198zM121.358 97.125h.868v-1.658c0-.372.124-.432.54-.51l.288-.042v-.766c-.45.043-.66.174-.85.337v-.31h-.847v2.948zM124.303 96.49h1.466l.197.636h1.06l-1.466-3.98h-1.037l-1.476 3.98h1.06l.196-.637zm.558-1.785c.057-.2.113-.41.165-.613l.518 1.68h-1.01c.09-.298.243-.765.328-1.067zM128.322 97.222c.332 0 .62-.11.845-.265.237-.17.354-.357.462-.526l-.654-.34c-.03.088-.057.155-.13.24-.18.202-.395.202-.44.202-.462 0-.652-.49-.652-.878 0-.356.157-.892.625-.892.134 0 .242.046.325.1.14.103.198.204.25.31l.64-.365c-.372-.615-.93-.704-1.257-.704-.98 0-1.475.722-1.475 1.578 0 1.2.894 1.542 1.46 1.542zM131.015 93.332h-.862v.91h-.43v.533h.43v1.417c0 .284.005.49.126.667.184.27.51.286.81.286.157 0 .27-.016.455-.046v-.676l-.31.01c-.23 0-.23-.15-.225-.33v-1.327h.576v-.528h-.57v-.918zM131.94 94.177h.855v2.948h-.856zM131.94 93.31h.855v.527h-.856zM134.763 94.092c-1.13-.063-1.697.654-1.697 1.554 0 1.09.756 1.563 1.583 1.563 1.15 0 1.578-.82 1.578-1.564 0-.534-.264-1.486-1.465-1.554zm-.113 2.43c-.484 0-.71-.413-.71-.88 0-.204.04-.405.147-.576.118-.187.265-.27.514-.288.123-.01.327-.003.507.165.165.157.244.412.244.738 0 .464-.232.842-.7.842zM138.69 94.23c-.15-.086-.347-.12-.522-.12-.21 0-.4.05-.534.107-.154.073-.21.138-.295.23v-.258h-.874v2.935h.868v-1.59c0-.367 0-.733.457-.733.17 0 .322.07.39.226.033.078.038.172.038.438v1.658h.863V95.11c0-.455-.077-.72-.39-.88zM121.058 17.992c.15.145.298.295.458.427.354.283.512.49.587.978.092.616.042.538.706.573.393 1.213.433 1.91 1.92 2.14.62.096 1.312.05 1.87.37.336.202.636.46.974.663.384.23.588.48.898.8.306.33.87.51 1.12.857.54.695-.658 1.655-.758 2.39-.178 1.336 1.408 2.348 2.312 3.07 1.197.946.854 2.236.677 3.596-.26 2.03-.156 4.393 1.558 5.735-7.192-1.58-12.658-7.763-13.13-15.313h-6.724c.52 12.4 10.733 22.296 23.263 22.296 5.946 0 11.37-2.233 15.484-5.902l19.55 14.78 5.973-7.892L158.1 32.666c1.138-2.585 1.826-5.414 1.95-8.39h-6.307V22.38h.003c0 .03.006.055.008.083h6.3C159.62 9.983 149.375 0 136.79 0 124.2 0 113.954 9.983 113.52 22.463h6.712c.07-1.557.36-3.053.826-4.47zm24.66 5.956c.834 1.31 1.672 1.83 3.15 1.144 1.377-.64 2.485-.687 2.545 1.008.042 1.05 1.305 1.3 1.583 2.1-2.124 6.83-8.476 11.796-16.004 11.796-.686 0-1.358-.055-2.023-.135.046-.156.03-.376-.09-.685-.24-.632-.584-2.158-.218-2.773.11-.18.342-.324.53-.413-.064.06-.122.14-.196.21.123-.058.218-.107.324-.178 0-.01-.008-.025-.015-.025.642-.61 1.694-1.154 1.973-2.026.107-.347.017-.723.22-1.05.264-.433.847-.6 1.27-.837.427-.23.832-.46.86-.984.028-.422-.274-.807-.206-1.242.135-.792 1.62-1.34 1.06-2.203-.543-.834-2.01-.824-2.847-1.17-.73-.304-1.153-.98-1.824-1.374-.804-.472-1.624-.793-2.397-1.338-.803-.56-1.774-.998-2.75-.595-.647.27-1.64 1.16-2.298.354-.248-.312-.052-.68-.21-.997-.158-.32-.827-.245-.924-.515-.134-.335.635-.58.612-.676-.282-.942-1.455.05-2.016-.012-.558-.067-1.08-.79-1.092-1.333-.036-1.54 2.108-2.263 3.33-1.864.786.26.97.803.745 1.52.716.048 1.128-.453 1.292-1.116.218-.874.497-1.242 1.183-1.92-.01.036-.042.054-.055.083 0 .006.082-.04.1-.045.328-.265.683-.502.978-.832.352-.4.542-.82 1.055-1.073.575-.282 2.433.068 2.177-1.15-.18-.02-.276-.1-.38-.232.452-.48 1.494-.018 1.622.56.51.036.856-.465.85-.932-.02-.568-.53-.748-.956-1.036-.562-.384-1.245-1.536-1.985-1.414-1.175.196-1.613 1.944-2.967 1.51-.953-.3-1.433-1.437-.237-1.82.604-.197 1.927-.292 1.5-1.296-.508-1.177-1.65.292-2.33.422-.605.11-1.334.098-1.944.073-.487-.022-.632-.076-.793-.332.226-.146.465-.276.7-.412.273.258.794.284 1.168.23.277-.044.688-.17.564-.537-.11-.323-.427-.17-.65-.266 1.594-.77 3.326-1.297 5.153-1.53-.148.71-1.473 1.217-.487 1.933.562.403.765.37 1.062 1.01.175.38.42 1.015.933 1.035.516.013.824-.61.824-1.04 0-.585-.387-.96-.904-1.177-.348-.142-.644-.087-.69-.5-.028-.326.402-.943.7-1.06.444-.18.727.153 1.067.38.4.26.636.31 1.11.28.92-.07 1.776.186 1.468 1.298-.15.554-.873 2.367.49 2.054.525-.12.888-.73 1.29-1.036.48-.36.977-.48 1.554-.56.58-.088 1.424-.205 2.04-.54 1.24.71 2.384 1.564 3.398 2.555-.337.087-.716.112-1.014.276-.426.234-1.08 1.065-.677 1.55.436.532 1.52-.5 1.72.216.07.23-.265.49-.166.764.127.337.842.397.53.882-.22.343-1.15.27-1.512.595-1.23 1.092.975 1.19 1.678.85.658-.313.265-.85.703-1.207.48-.396 1.244-.28 1.74.047.422.774.796 1.58 1.094 2.42-.5.057-.802-.107-1.26-.64-.44-.51-.773-.37-1.336-.075-.653.343-1.176.576-1.928.645-.647.06-.854.242-1.21.798-.627 1.006-1.927 1.866-2.15 3.068-.166.91.32 1.8.797 2.54zM135.36 35.992c-.012.004-.023.018-.04.03 0 0 .003.01 0 .014.003-.003.034-.04.04-.044zM131.338 16.65s-.004 0-.007.002c-.037.03-.078.06-.114.093.04-.042.094-.062.122-.095zM128.596 20.363h.054c.127.498.164.6.793.555.34-.023.973-.12.932-.596-.348-.134-1.492-.184-1.78.04z"/></g></svg>