<svg xmlns="http://www.w3.org/2000/svg" viewBox="0 0 960 560" enable-background="new 0 0 960 560"><g fill="#999"><path d="M54.42 151.4h.493l72.478 116.657h38.317V93.807h-35.873v116.9h-.488L56.62 93.807H18.545v174.25H54.42zM268.586 272.206c16.84 0 34.41-6.586 47.833-23.914l3.904 19.765h24.407v-94.2h-73.22v28.557h38.56c-2.2 24.163-16.596 37.58-41.49 37.58-34.412 0-47.347-29.287-47.347-58.325 0-30.507 12.935-59.794 47.346-59.794 18.058 0 32.455 10.004 36.848 29.287h36.605c-4.15-39.535-37.83-61.5-73.46-61.5-53.93 0-85.656 40.267-85.656 92.006.007 50.27 31.732 90.536 85.67 90.536zM529.816 181.67c0-51.74-31.724-92.006-85.657-92.006s-85.663 40.266-85.663 92.005c0 50.27 31.724 90.536 85.662 90.536 53.932 0 85.656-40.266 85.656-90.537zm-133.002 0c0-30.507 12.935-59.794 47.346-59.794s47.346 29.287 47.346 59.793c0 29.037-12.935 58.324-47.346 58.324-34.41-.006-47.346-29.287-47.346-58.325zM66.136 294.596L0 468.84h38.804l13.666-38.804h65.16l13.18 38.804h39.778l-65.16-174.244H66.135zm-3.662 106.89L85.17 337.55h.486l21.964 63.936H62.474zM176.725 294.596h34.655v28.55h-34.655zM176.725 342.673h34.655V468.84h-34.655zM319.56 358.045h-.486c-7.81-12.447-22.45-18.79-37.336-18.79-37.092 0-55.888 31.486-55.888 65.404 0 34.898 18.546 67.603 56.62 67.603 16.108 0 30.26-5.86 38.315-19.527h.487v16.11h32.95v-174.25h-34.656v63.45h-.005zm-28.55 88.1c-21.477 0-30.506-20.745-30.506-40.51 0-20.745 7.81-40.266 30.506-40.266 22.45 0 29.775 19.52 29.775 40.016-.006 20.745-6.836 40.76-29.775 40.76zM516.488 414.426H516l-40.753-119.83h-53.932V468.84h35.873V346.573h.488L500.38 468.84h29.53l42.71-123.48h.493v123.48h35.873V294.596h-53.932zM744.803 375.13c0-30.263-30.262-35.875-55.4-35.875-28.307 0-57.344 9.766-59.3 42.222h34.65c1.223-13.67 9.765-19.034 22.943-19.034 12.203 0 22.45 2.194 22.45 17.084 0 14.153-19.764 13.417-40.99 16.59-21.483 2.93-42.954 9.767-42.954 38.317 0 25.864 19.034 37.83 42.953 37.83 15.366 0 31.475-4.156 42.46-15.622.244 4.155 1.213 8.298 2.437 12.203h35.142c-3.174-5.118-4.387-16.59-4.387-28.063v-65.654h-.004zm-34.66 44.908c0 7.567-.975 29.038-28.063 29.038-11.223 0-21.233-3.174-21.233-16.11 0-12.684 9.766-16.352 20.507-18.545 10.736-1.954 22.933-2.198 28.794-7.328v12.946h-.005zM835.65 339.256c-15.62 0-29.287 6.104-37.58 19.527h-.493v-16.11h-32.943v170.583h34.65v-60.03h.492c8.298 12.446 22.695 19.038 37.83 19.038 36.847 0 55.394-31.486 55.394-65.166 0-35.874-17.815-67.842-57.35-67.842zm-7.317 106.89c-22.457 0-30.262-19.522-30.262-40.018 0-20.507 7.32-40.754 30.014-40.754 22.202 0 30.262 20.745 30.262 40.754 0 20.496-7.318 40.017-30.013 40.017zM853.604 223.093c6.15-13.954 9.905-29.204 10.575-45.268H830.12v-10.23h.017c.005.15.032.293.038.442H864.2c-2.342-67.393-57.665-121.292-125.617-121.292-67.958 0-123.292 53.9-125.63 121.287h36.234c.37-8.403 1.95-16.48 4.46-24.14.813.786 1.605 1.594 2.47 2.303 1.91 1.534 2.764 2.648 3.17 5.285.498 3.324.226 2.903 3.81 3.09 2.127 6.55 2.343 10.304 10.38 11.55 3.34.522 7.08.272 10.1 2 1.81 1.092 3.428 2.488 5.256 3.58 2.077 1.24 3.174 2.586 4.847 4.32 1.65 1.773 4.697 2.753 6.055 4.625 2.908 3.75-3.562 8.94-4.094 12.907-.957 7.207 7.6 12.674 12.48 16.574 6.466 5.102 4.615 12.07 3.657 19.41-1.396 10.968-.842 23.714 8.41 30.966-38.838-8.536-68.352-41.923-70.895-82.688H612.98c2.81 66.96 57.948 120.384 125.607 120.384 32.107 0 61.305-12.13 83.518-31.935l105.65 79.862 32.25-42.604-106.4-80.427zm-125.325 35.17c-1.297-3.412-3.153-11.655-1.175-14.973.593-.964 1.845-1.75 2.858-2.232-.343.32-.654.764-1.053 1.14.665-.315 1.18-.58 1.75-.963 0-.06-.044-.133-.078-.133 3.468-3.296 9.15-6.232 10.652-10.94.576-1.878.09-3.91 1.185-5.678 1.428-2.332 4.575-3.24 6.85-4.515 2.31-1.242 4.5-2.477 4.66-5.313.144-2.277-1.485-4.354-1.12-6.703.727-4.276 8.742-7.235 5.723-11.893-2.93-4.503-10.846-4.447-15.367-6.314-3.944-1.64-6.226-5.285-9.85-7.417-4.347-2.555-8.773-4.29-12.945-7.23-4.33-3.02-9.577-5.39-14.84-3.213-3.5 1.462-8.868 6.26-12.413 1.91-1.34-1.69-.277-3.677-1.125-5.39-.86-1.727-4.47-1.323-4.99-2.78-.732-1.81 3.422-3.13 3.295-3.65-1.518-5.092-7.86.27-10.885-.062-3.013-.36-5.833-4.27-5.894-7.2-.194-8.32 11.378-12.22 17.98-10.06 4.244 1.4 5.236 4.33 4.023 8.208 3.873.255 6.1-2.454 6.98-6.032 1.175-4.72 2.682-6.702 6.388-10.363-.06.188-.227.288-.3.443 0 .033.444-.216.544-.244 1.773-1.43 3.69-2.71 5.28-4.493 1.9-2.16 2.924-4.432 5.694-5.79 3.102-1.522 13.14.367 11.755-6.21-.974-.104-1.49-.542-2.043-1.25 2.437-2.588 8.06-.095 8.752 3.018 2.747.2 4.624-2.503 4.586-5.03-.105-3.062-2.864-4.037-5.157-5.594-3.037-2.077-6.726-8.298-10.72-7.633-6.348 1.058-8.714 10.492-16.026 8.154-5.146-1.618-7.74-7.76-1.28-9.82 3.257-1.07 10.403-1.58 8.093-7.003-2.737-6.354-8.902 1.573-12.58 2.277-3.257.594-7.2.527-10.492.4-2.626-.122-3.412-.41-4.282-1.79 1.23-.79 2.515-1.49 3.783-2.22 1.48 1.385 4.293 1.523 6.31 1.235 1.495-.238 3.716-.925 3.046-2.903-.593-1.745-2.304-.92-3.507-1.435 8.608-4.166 17.96-7.002 27.825-8.254-.798 3.833-7.95 6.564-2.63 10.43 3.03 2.178 4.126 2.006 5.732 5.452.947 2.06 2.266 5.484 5.035 5.595 2.786.072 4.448-3.296 4.448-5.617 0-3.157-2.094-5.18-4.88-6.354-1.883-.765-3.48-.472-3.717-2.71-.155-1.756 2.166-5.085 3.767-5.722 2.404-.97 3.927.836 5.767 2.055 2.166 1.407 3.434 1.678 6 1.507 4.962-.37 9.582 1.014 7.915 7.013-.814 2.99-4.714 12.78 2.653 11.09 2.83-.648 4.792-3.94 6.958-5.595 2.58-1.95 5.274-2.587 8.392-3.025 3.13-.476 7.683-1.108 11.018-2.914 6.686 3.832 12.868 8.44 18.34 13.792-1.82.476-3.866.615-5.472 1.496-2.3 1.263-5.828 5.75-3.656 8.365 2.36 2.875 8.22-2.698 9.295 1.17.382 1.245-1.435 2.64-.903 4.12.687 1.817 4.542 2.144 2.858 4.764-1.174 1.85-6.193 1.462-8.16 3.213-6.647 5.894 5.263 6.42 9.057 4.587 3.55-1.69 1.435-4.587 3.795-6.52 2.592-2.138 6.714-1.512 9.39.255 2.28 4.182 4.298 8.525 5.91 13.073-2.698.3-4.332-.582-6.802-3.457-2.37-2.753-4.17-1.994-7.212-.41-3.534 1.856-6.354 3.113-10.414 3.48-3.495.315-4.614 1.306-6.525 4.303-3.397 5.43-10.41 10.072-11.617 16.558-.903 4.936 1.717 9.738 4.293 13.738 4.498 7.063 9.024 9.888 16.995 6.176 7.44-3.462 13.423-3.706 13.75 5.44.227 5.672 7.046 7.013 8.547 11.328-11.472 36.882-45.762 63.698-86.41 63.698-3.706 0-7.334-.294-10.924-.726.253-.856.17-2.04-.484-3.71zM730.877 241.085c-.066.022-.127.094-.216.155 0 .01.012.06 0 .078.012-.017.178-.216.217-.233zM709.156 136.644c0-.006-.017.006-.033.01-.205.167-.427.328-.626.5.21-.222.504-.333.66-.51zM694.35 156.697h.287c.687 2.687.886 3.24 4.282 2.997 1.827-.127 5.25-.648 5.03-3.218-1.873-.732-8.05-.998-9.6.22z"/></g></svg>