<svg xmlns="http://www.w3.org/2000/svg" viewBox="0 0 379.64 196.388" enable-background="new 0 0 379.64 196.388"><g fill="#ccc"><path d="M360.73 35.9c.39 1.126 1.715 1.242 2.738 1.305-.096-.92-.31-1.81-.645-2.67 2.5-.377.962 1.34 3.495-1.297-1.734-1.147-5.92-4.52-5.313-.772-1.918-.33-.45-3.095-2.21-3.097-1.265-.002-2.372-1.57-3.706-1.74-1.232-3.528-11.122-6.142-14.21-4.786.04.864 1.212 1.198 1.022 2.123-.398 1.937-3.172.072-3.57-.922-.268-.666-6.992-.98-7.968-.077-.716-.19-1.62-1.012-1.845-1.713 1.065-1.936-2.24-2.11-3.66-2.136-3.88-.074-5.29.487-9.005-1.12 1.657-1.104-.74-1.457-1.78-1.405.043-.002-4.604 3.75-1.477.17-3.562.428-1.46.33-1.08-.424-2.927-.67-4.932.327-7.217.327 1.788 0 .488 2.602-1.72 1.868-2.834-.942-.767-.117-2.067.682-1.668-.936-1.79.22-3.03-1.567-.45.7-.545 1.44-.283 2.225-1.586 1.156-5.602-4.825-6.31-2.2-2.955-.05 3.244-3.15 2.11-2.528-1.183-1.233-8.197-1.436-5.692.22-2.432 1.577-3.57-.2-4.974-.605-1.734-.5-3.74 1.285-4.762 1.152.185-.742.015-1.337-.51-1.787-1.176.772-2.34-.518-3.405.61.485.077.955.208 1.41.394-.02.055-5.766 1.872-6.098 1.696.635-2.07 3.635-2.814 5.42-3.62 4.914-2.214.75-1.06 1.38-3.158 3.347-.19-.247-2.365-1.893-1.98-1.054.245-4.193.62-5.12.55-.01.103-1.227-2.657-1.44-2.786-1.886-1.14-1.686 2.544-1.015 3.418-1.877-.14-3.847-1.084-2.663 1.286.122-.004-3.545-.494-3.765-.423-1.07.344-2.726 1.52-3.76 1.6-1.53.12-1.854 1.036-3.164 1.33-2.056.462 1.805 3.428-1.45 3.768.257-.235.383-.532.377-.892-1.25-1.156-7.458 2.406-3.786 3.54 1.564.483 3.805 3.636 2.704 5.388-1.02 1.622-1.58-3.138-1.314-3.906-2.22 0-2.497-1.683-4.587-1.86-.622 2.985-1.853-.257-2.324 1.556-.518 1.992 3.666.01 3.166 2.12-1.497-.17-4.11-.677-3.46-2.54.302-.866.34-1.443-.71-1.443.403 1.64-1.135 1.406-1.153 2.74-.02 1.596 1.948 1.2.713 2.774.393 2.84 4.888 1.96 6.156 5.538-2.477 1.09-1.747-3.44-3.883-3.04-1.335.25-1.85 8.158-5.813 4.636 2.49-.934 2.88-1.536 3.842-4.322-2.49-2.144-.512-5.676-1.976-7.588-2.486-3.247-4.854 3.383-4.738 3.532.767.985-.636 1.368-.013 2.38 1.207-.454 2.047 1.872 1.868 2.664-2.052-.976-3.717-1.594-5.726-2.04-2.408-.533-.684 1.535-1.853 1.975.118-.043-3.372.047-3.34.055-1.277-.335-3.775 3.37-1.923-.694-1.212-.197-4.827 2.408-5.342 3.204-1.738 2.682-3.506-.43-1.297-.702-.552-1.335-1.336-1.4-2.675-.93.166 1.23 1.314 3.14.758 4.278-.673-.502-4.423-1.403-3.32 1.132 1.294 2.98-2.6.397-2.863 1.18.54.5 1.042 1.04 1.503 1.613-4.177 1.915-2.63-4.467-6.244-4.467.086 0-.737-3.077 1.164-2.614-.06 1.956-1.112 1.565 1.44 2.663 1.116.48 4.56 1.546 5.317-.04 2.074-4.36-8.93-5.467-10.607-6.052.35-.295.682-.607 1-.935-.406-.75-2.786-.392-3.05.053-.57-.46-1.053-.562-1.895-.756.05.325-.5 1.637-1.08 1.697-1.18-1.445-6.163 1.757-5.56 2.813-.937.633-3.31 2.683-2.434 4.258.165.295-2.843 1.742-2.26 2.823.43.794 1.38-1.254 2.01-.094-.4-.735-2.866 1.833-3.016 2.02-.498-.003-.98-.097-1.444-.28-.113 1.91-1.288 1.248-2.22 2.28.342.13.568.37.68.718-2.74.178-1.36 11.86 3.503 4.596 1.347 1.474 2.12 5.038 2.503 7.01 2.07 0 4.36-5.085 4.276-6.57-.456-.01-.87-.148-1.245-.41.524-.61 1.38.258 1.876-.427.122-.167-1.602-3.966-1.583-4.523.075-2.14 3.36-2.073 3.442-4.485.08-2.34 2.768-2.967 3.527-.492-1.45 1.372-5.78 6.495-2.268 8.255.603.302 7.287-2.115 6.83.437-1.52.452-3.01.398-4.386.79-2.943.838.155 2.44-.742 4.425-.615-.092-1.413-1.146-1.786-1.167-.663.88-1.437 3.84-1.482 5 .033-.83-5.29 1.49-5.835 1.247-1.582-.704-4.304.346-3.743-2.656 2.043-1.664.28-1.94-1.17-1.232-2.32 1.135 2.676 4.513-2 5.125-1.234.162-4.278 3.622-4.68 4.793-.77 2.24-1.913.726-2.925 1.06.43 2.682-2.702.045-2.315 2.533 2.795.95 5.018 4.4 2.175 6.973-2.17 0-7.435-1.676-6.712 1.827.453 2.194.118 5.122-.057 7.228 1.92-.323 6.806 2.352 8.02-1.177 1.006-2.93 2.84-4.84 3.63-7.404.316-1.033 6.433-2.233 7.173-.648 1.482 3.17 6.305 2.876 5.44 7.05 1.62-.16 1.207-1.536.954-2.337-.392-1.24.912-.42 1.295-.718-.802-1.615-3.403-2.466-4.47-3.97-3.026-4.272-1.46-2.667.897-2.667.47 1.147 1.787 3.19 3.27 3.34 1.928.195 1.397 1.518 1.824 2.802.8 2.407 2.046 2.09 3.694 3.084-.038.693-1.568.21-1.954.45.21 1.038.838 1.622 1.882 1.753-.035-.402.264-5.64-.58-5.306.303.25.652.372 1.045.365-.37-2.307 4.454.803 4.477-1.558-2.304-2.202 2.367-8.91 2.89-8.427-.2-.187 1.043 1.48 1.012 1.317-.466.19-.695.538-.686 1.042 1.696.324-.028 1.078 1.022 1.347.792.203 1.693-.982 2.66-.972-.057-.896-1.536-1.154-2.446-1.783 1.29-.67 3.67-2.413 5.122-1.97-.623 1.207-2.86 2.133-1.75 3.99 1.026 1.716 3.746 2.1 5.028 3.968.968 1.41-3.475 1.192-3.78 1.176-2.913-.145-3.066-.953-6.106.133-2.696.963-6.296 1.61-3.982 4.92.73 1.043 1.656 3.586 3.68 1.595.103-.1 5.797-.133 5.632-.326-.367 1.542-.156 6.907-2.22 7.402-1.498.36-5.563 0-7.23-.17-1.975-.205-3.16-1.78-4.82-1.47-1.272.236-1.333.67-1.4 1.868-.12 2.227-2.318.238-3.132.23-.304-.002-5.277-2.35-5.562-2.555-1.347-.967.062-5.24-2.367-5.26-2.764-.02-7.428.483-9.898 1.966-1.656.994-3.046 1.336-5.138.674-.965 1.096-.946 2.176-2.412 2.886-2.533 1.227-.532 4.383-2.328 5.977-1.754 1.557-5.594 4.018-5.685 6.87-.092 2.88-1.75 3.558 0 6.22.454.69-.14 3.65-.927 4.033-.638.31.388 2.095.386 2.72-.01 2.778 8.493 10.53 10.872 9.414 1.357-.636 2.638-1.472 4.19-.856 1.618.643 2.67-.86 4.25-1.32 2.846-.83 4.51 1.227 7.195 1.38 2.012.116 2.122 2.25 1.793 3.704-.91 4.028.048 3.707 2.293 6.857 1.21 1.698.982 3.98 2.018 5.574 1.775 2.733-1.93 4.86-1.52 7.875.247 1.797.723 3.395 2.116 4.902 2.36 2.555 1.624 7.654 4.248 10.655.863.987-.358 4.79 2.803 4.28 2.204-1.47 5.51-.445 7.587-1.952 1.747-1.27 3.44-2.987 4.762-4.702 1.125-1.463 1.168-4.46 2.844-4.906 3.987-1.06-1.032-6.412 2.337-7.395 2.3-.67 4.594-3.32 4.83-5.3.56-4.71-4.777-10.112.607-13.99 4.04-2.907 9.54-10.22 8.7-15.527-2.742.86-6.55 3.418-8.557.778-.596-.784 1.24-1.503-.79-1.83-.75-.12-3.855-2.614-4.003-3.417-.196-1.06-8.56-16.752-8.64-16.732.374.613 1.195 2.7 1.87 3.234-.307-1.08-.058-1.745.75-1.99.16 1.233.966 2.985 2.007 3.785 1.817 1.394 3.03 6.075 4.51 6.656 1.978.775 4.684 10.267 6.592 8.338 1.354-1.37 5.62-2.454 7.37-3.152-.02-.747 2.664-2.67 3.34-2.89 1.27-.41 3.537-4.464 3.235-5.616-1.05-.783-2.91-1.423-3.71-2.396-.03-.037-.57-1.882-.89-2.076.67-1.002-5.27 6.1-4.492 2.208.223-1.116-.363-3.51-.613-.355-1.438-1.103-4.944-8.924-1.546-6.26 1.652 1.298 3.35 5.037 6.15 3.358 1.055-.633 1.53.625 1.825 1.28 1.975.614 4.062.816 6.11.47 3.497-.59 4.74 1.762 7.892 2.658-.173 1.62-2.016-.208.17 1.92 2.587 2.52 1.048-.965 2.92-1.157-.565 4.064 3.525 7.415 4.25 11.015.75 3.727 3.808 7.113 5.78 2.49-2.79-3.832 4.106-13.197 7.49-13.51 2.104-.193 4.642 1.9 5.86 4.065.383.68.206 2.934 1.367 2.644 2.95-.736 1.322-1.144 2.965 1.467.634 1.01 2.206 7.188 2.387 7.19 2.873.034 2.655 7.414 6.955 7.713 0-1.606-2.178-5.924-3.85-6.437-3.13-.962-2.515-5.027-2.515-7.31.868-.125 4.385 2.542 5.23 3.473.024.025.28 2.387 1.19 1.706 1.095-.818 3.94-2.162 3.687-3.862-.55-3.707-2.7-3.96-4.754-6.808-1.244-1.727.036-2.286 1.033-3.67 1.424-1.98 2.1 1.065 2.91 1.06.463-2.53 4.915-2.293 6.487-3.78 1.976-1.867 5.703-8.807.642-7.27.38-1.69.842-.302 1.902-1.108.388-1.458-1.39-2.922-2.5-4.166-2.696-3.018.686-2.11 1.383-4.43-.33-.073-6.475.594-5.696-2.04-.03.108 2.5-2.098 2.59-2.2 1.596-1.817 1.216 1.36 1.56 2.18 1.47-1.046 3.68-1.892 3.73.704.028 1.345 2.362.657 2.11 1.992-.723 3.81 1.81 2.168 3.644 2.377-.744-2.447-1.064-2.96-2.953-5.003-1.385-1.497 1.872-1.576 1.2-2.888-.205-.397.626-3.03 1.493-2.547 2.174 1.207 2.852.196 3.86-1.867.576-1.178.866-2.944 1.732-3.872 2.052-2.197-.106-4.22.715-6.914.415-1.362-1.443-3.346-2.33-4.164.234.216-3.512-.35-3.132-.392.092.313.01.56-.243.74.063.022-1.97-1.596-1.98-1.613 1.642-2.942 6.538-9.544 10.135-7.188-.345-.226 2.727-.263 3.067-.674 1.4-1.692 2.637 1.063 2.766 1.312 1.026-.152 3.75.02 4.376-.98-3.643-2.182 4.457-5.196 4.457-4.78 0 6.61 4.75-3.02 5.97-.374-2.29.294-.228 2.98-2.24 3.052-1.453.05-4 4.1-5.315 5.015-2.76 1.922-.014 9.047 1.96 11.596 1.58-1.39 1.1-2.493 1.992-4.122.72-1.315.754-.745 1.977-1.17-.24-1.19-.52-3.13 1.127-2.38.472-1.25-1.27-3.4-2.238-3.57.76-1.214.79-2.07 1.12-3.447.213-.89 2.39-.162 3.474-1.384.095.445.22.883.37 1.312 1.29-.757 2.325-1.687 3.685-.345.865.854 1.915-.684 2.834-1.28 1.703-1.106 3.286-2.512 5.328-2.896 1.225-.23 1.764.97 2.653-.216-1.898-2.353-2.5-3.51-5.334-4.237 1.623-.697 4.032.743 4.9-1.39.465-1.15-.49-2.633 1.59-2.323-.59.98-.43 2.742 1.35 1.996 1.764-.738 1.432 2.72 3.45 1.87.26.743-.66.278 0 0zM138.49 134.127c-1.503.424-4.973-2.24-7.308-2.088-2.008.13-.86-.707-2.407-1.343-2.633-1.084-2.607.96-4.697.706 1.8-1.232 2.27-2.645-.25-2.645-1.22 1.755-2.05 2.63-4.148 2.962.603-1.4 5.95-2.432 4.036-5.18-.766-1.098-.48-2.628-1.948-3.263-1.957-.847-3.735-.475-5.378-1.27-.87-.422-4.77-4.375-4.64-4.726-3.91.463-4.585.355-7.92-1.237-.01.144-1.354 3.384-1.487 3.55-1.08-.997-.76-2.637.156-3.835-2.7-.265-4.902 3.567-6.212 5.422-1.596-3.3-8.994 2.495-6.96-5.006 1.544-5.7-2.475-1.312-4.76-3.734.73-1.266 2.49-5.3 2.41-6.69-.083-1.396-3.883.43-3.546.32-.623.926.027 2.88-1.486 3.248-8.364 2.028-4.675-5.836-5.135-10.65-.547-5.747 8.044-2.386 8.845-4.832.39-1.197 3.39-.644 3.762-.635 1.707 2.3 1.28-1.908 3.027 1.71.576 1.19-.61 4.388 1.395 4.995.717.218-.067-9.227 1.917-10.278 1.37-.725 3.034-2.495 4.273-3.508 1.202-.984-.584-4.873.638-5.094.076.556.23 1.09.463 1.6.697-.695 1.578-2.342 1.898-3.222.936-2.576 2.39-1.843 4.688-3.194-3.356-2.034 6.08-6.104 6.216-5.75.234.604-2.45.91-1.708 2.68.065.155 4.228-2.033 4.908-2.386-.277-1.074-3.45-2.51-4.08-3.983.58.036 1.932-.67 1.7-1.447-.51-1.71-3.308.275-4.138.385 2.486-4.044 4.57-1.694 8.067-2.655 1.057-.29 4.36-2.186 4.96-3.032.38-3.924-.145-2.276-2.688-2.696.404-.568.943-.94 1.617-1.116-.92-.535-1.756-1.178-2.507-1.93-.95-1.28-.02-1.914-.596-2.983-.61-1.13-1.18-4.756-2.04-5.215-1.444 1.6-5.624 5.377-4.946.908.7-4.6-3.355-3.4-5.92-5.08-1.43-.937-1.33 3.502-1.33 3.787-.263.982-.778 1.8-1.545 2.456-.95 1.148.554.825 1.01 1.972.836 2.096-.597 4.822-2.683 5.416-1.443.41-.25 3.426-.77 4.64-1.81 4.22-2.78-3.665-2.76-4.86.01-.542-4.424-1.07-5.034-2.532-.72-.7-1.58-1.102-2.58-1.2-2.264-.375-1.373-3.017-2.718-2.88-2.354.24 1.234-5.178 1.278-5.508.344-2.593 4.39-1.594 1.978-4.14 2.873-.605 3.193.026 5.504-2.517-1.09.076-1.91-.35-2.454-1.28.543-.354 2.195.742 3.298.184 1.157-1.86.845-.82 3.138-1.097-.066-.148-.597-.914-.482-1.162 1.484.378 3.334.89 3.088-1.602-.186-1.89.815-1.223.727-2.857-.378-.316-3.555-2.432-3.258-1.11.142.633-1.888 4.62-2.894 4.377-.617-.926-.594-5.612-2.304-1.84.54-.065-1.653-2.81-1.755-3.15 2.024-.72-1.075-8.103-3.496-1.6-.77 2.068 2.607 1.24 1.32 3.107.518.897-1.353 4.09-2.706 4.24-.173-.375.703-1.575.475-2.013-2.08-1.65-1.69.42-3.75.354-2.004-.064-6.95-2.532-7.825-1.446.627-.03 1.252-.08 1.876-.15-.392 1.382-1.774.284-2.24 1.294-.426.924.966 1.506-.36 2.156-.698-.433-.683-1.292-1.482-2.078-1.45-1.427-4.3 1.194-5.972-.23.2-.608.607-.998 1.227-1.17-1.08-1.774-8.043-4.034-9.585-2.206-.21-.292-.274-1.696-.747-1.627-1.985.288.625 1.85-2.304.917-.14-.965.015-1.562-.747-2.17-.512 1.112-5.955 4.243-6.944 3.522 1.01-1.218 3.29-1.184 4.098-2.655-.287-.208-6.632 2.19-6.597 2.266.56 1.185-6.828-.91-7.666-1.332-2.712-1.36-21.503-3.45-20.99-.885-1.63 0-4.528-.005-5.494 1.756-1.304 2.38-4.53 1.15-5.382 3.5 2.737 1.142 3.44 2.487 6.444 2.848-.38.975-1.324-.103-1.728.6.295.077.505.255.63.537-1.936.76-7.298-1.718-8.58 2.083 1.697.558 2.006 2.383 4.055 2.116 1.312-.17 3.685-1.074 4.794-.985 1.005 2.29-3.506 3.636-4.73 3.853-1.502.266-2.347 2.5-2.973 3.616.923 1.092 2.56.42 2.407 2.06-1.824-.06-1.95-.023-.74 1.9 2.068 0 .86-.56 2.29-1.347 1.03 2.37-.137 2.5 2.603 3.187 2.185.548 1.753-1.066 3.794-.255-1.56 1.915-2.596 3.007-4.437 4.714-2.05 1.9-4.69 2.555-6.75 4.492.38.134 7.167-2.912 7.844-3.478 1.443-1.207 3.482-2.717 5.09-3.763.913-.592 4.1-1.614 3.784-2.934-2.714-.95 3.895-5.46 4.302-4.603-3.476.535-2.142 5.257.32 2.673 1.74-1.827 2.738-2.86 4.942-1.656 2.016 1.1 3.748 1.482 6.14.943 1.904 1.393 2.703 1.724 4.308 1.846 2.126.16 4.73 6.352 4.962 8.547.143 1.343 2.18 2.607 2.257 4.506.087 2.134 2.708 1.746 3.752 3.596.78 1.383 1.48 2.226.21 2.226-3.178 0 .153 2.766-.868 3.59-2.17 1.756-3.36 10.7-1.093 12.898 1.393 1.35.668 4.73 3.133 5.55 2.593.863 1.372 4.203 2.972 5.92 2.416 2.59 1.848 7.435 5.668 9.19.537-3.348-5.763-8.198-4.348-12.05 1.432.766 5.31 6.617 5.04 8.036-.183.954 1.93 2.433 2.446 3.25.968 1.528.23 3.9 1.422 5.012 1.384 1.29 5.695 4.15 7.696 4.35 2.026.205 2.53-1.707 4.206.5 1.263 1.66 3.138 1.69 5.075 1.89 1.006 1.3 2.06 1.99 1.842 3.673 1.286.69 2.907 1.677 3.926 2.36 2.632 1.764 2.206-3.704 4.375.047 1.7 2.938-.754 4.77-1.138 7.264-.29 1.895-2.96 2.07-2.375 4.744 2.005-.44-.375 1.833-.562 2.59-.46 1.866 2.48 6.534 3.574 8.174.937 1.403 1.04 2.997 2.13 4.293.99 1.175 3.346 1.748 4.6 2.625 3.885 2.715-1.338 18.407-1.7 22.46-.136 1.51-1.124 3.523-.768 5.272.14.688 2.19 1.41.81 3.52 1.963 2.82-1.777 2.077-2.228 2.918.066-.123 1.673.998 1.673 2.092-1.602.208.123 1.89-.49 2.877-.424-.347-.795-.745-1.113-1.19 0 1.952 1.485 2.76 3.314 3.345-.368.165-.458.428-.27.787 1.092-.552 1.643-.68.928.792 2.945 0 2.402-5.65 4.923-7.36 2.853-1.94-1.996-2.41-.41-3.435 1.748-1.132 1.615-2.996 3.337-4.157-1.027.043-1.49-.444-1.39-1.462 1.645-.257 2.945.12 3.15-1.93.175-1.73 4.436-1.967 5.708-4.198-1.074-.696-.813-1.402-1.85-2.23.033-.804 3.59.176 4.5-.65 1.66-1.503 1.702-3.118 2.92-4.9.307-.448 1.653-1.477 2.286-2.454 1.392-2.148-.09-3.29 2.403-5.144 2.344-1.74 4.387-1.53 5.956-3.743 1.858-2.624 3.18-6.85 1.932-10.01 3.8.835 6.816-9.804 3.44-8.853-.536.15.402-.113 0 0zM155.71 30.245c.453-.66 1.055-1.134 1.807-1.42-1.67-.216-2.766-.047-4.392.165.158-.302.396-.515.71-.64-.455-.01-.813-.203-1.074-.576-.097-.562 2.213-1.03 2.536-1.224-.23-.05-2.302-.227-1.886-1.022 2.297.444 3.296 1.867 5.313 2.566.663-2.84-2.63-4.142-4.514-5.343.245-.4 1.412-.882 1.956-1.46.69.192 2.598 1.062 3.45 1.044 2.36-.05-.89-1.762-.843-1.687.788-1.734 2.75.044 2.79-.613-.492-.204-2.823-1.808-.818-1.577 0-1.194-1.553-2.152-1.276-2.7.895-.304 1.37.23.525-1.06.378.2 2.403 1.78 2.725.737.28-.905-1.42-.95-2.07-1.443.377-1.032.908-.024 1.514-.328-.286-1.85-1.554-.114-1.204-2.52.484-.37 2.82-1.618 2.555-2.448-.54.183-.942.09-1.203-.28.26-.497.724-.62 1.395-.368.003-.288 2.846-1.667 4.22-2.27-.917-3.027-9.184 1.85-9.458 1.54.453-.346 2.166-2.138 1.79-2.856-.663-1.266-2.987 1.362-4.224 1.176.28-.406.55-.817.816-1.23-1.925.4-3.9.553-5.752 1.27.15-3.27 6.388-1.223 8.068-2.496-2.004-1.116-1.93-2.19-5.177-1.23-.5.148-4.39 1.696-4.292.802 1.02-.89 6.583-1.55 6.564-2.05-1.534-.215-10.152-1.1-9.3 1.357-1.116.212-5.423-2.175-4.982.275 1.19.038 2.326.312 3.405.823-1.598-.13-3.44-.705-3.44 1.337-1.195.076-6.132-4.492-4.704-.364-2.28-.37-7.664-2.778-7.086.68-1.51-.562-2.685-3.05-3.33.124-1.567-.396-3.136.49-4.662 1.382.614 2.07 1.277-.38 2.286.923-1.928 1.025-3.878.85-5.942 1.672-4.036 1.61 3.374 2.683 3.446 2.434-1.482.098-3.03.338-4.332.786.894 1.182 2.238.38 2.974 1.19-.934-.077-1.582.25-1.943.977 3.596 2.143 7.313-.98 9.19 4.515 3.074 1.368.99 3.574 1.59 5.106 1.24 3.188-.518.106 1.227.054.312 1.18 1.82 1.718 1.386 3.134-.784-.016-1.568-.05-2.35-.104 1.366 1.09 4.352.592 2.426 2.235-.52.44-1.506 2.154-2.1 2.874 1.896.645.325.11.078 1.06.54-.06.827.144.858.618-.675-.094-1.267.086-1.775.54.573.187 1.16.285 1.76.296-.782.194-1.43.578-1.943 1.153.088.654.31.694.667.12 0 2.778-.61 2.257 1.27 2.39-.227 2.426-.682 3.58 1.214 5.63-.315 2.105 2.29.95 2.95 1.145-1.127 3.37 5.278 1.025 3.164-2.7 1.777.276 3.166-5.79 5.535-6.59-.202.49-.154.956.143 1.4 1.624-.924 3.228-1.342 3.84-3.526-.023 0 3.315-1.592 3.392-1.66 1.01-.89 3.37-.352 4.54-1.745zM347.05 151.483c.257-2.94-3.695-5.472-4.518-7.512-.427-1.06-1.254-1.186-2.136-1.647-1.626-.85-.542-1.95-1.46-3.192-.684-.925-2.983-6.215-3.922-6.43-1.65-.38-.588 7.037-2.595 7.858-1.272.52-4.297-2.237-5.2-2.83-.308-1.286.992-2.437 1.44-3.473-.898-.045-7.497-1.246-4.887-.214-.47.546-3.376.44-2.906 1.655-.134-.345-.454 2.573-.32 2.307-.695.006-1.288.26-1.78.76.23-4.11-4.485-.908-3.526.826-3.016.138-.182.114-1.363 1.34-.327-.353-.626-.73-.896-1.128-1.682.66-.44 1.485-.97 2.522-1.455 1.254-2.726.936-4.085 1.838-1.904 1.265-5.466 1.482-5.396 4.354.06 2.54-.383 3.213.504 5.526.723 1.884 2.06 5.882-.232 6.985 2.085 3.745 10.294-1.46 12.664-2.123 3.294-.922 5.635-1.6 8.78-.124.63.295 1.015 3.136 1.576 3.36.465.188 2.442-2.708 3.558-3-.284.54-1.907 2.888-1.627 3.32.918.27.502-.917 1.21-.973.914.868.954 3.224 1.497 4.535.474 1.145 2.208.85 3.076 1.35.987.264 1.79-.002 2.41-.797.372.486.8.916 1.284 1.29 6.02-.632 9.376-11.34 9.82-16.38.074-.854-.032.352 0 0zM117.3 26.535c-.36-.326-3.052-.246-3.514-.23-.025-1.276 1.064-.43 1.497-1.46-.916-.817-1.744-.338-2.384.368-1.02-.77-1.25-1.625-2.108-1.785-.23-2.515-2.39-.797-3.206-.225-.21-.238-.35-.512-.425-.82-.308.403-.713.633-1.215.69-.21-4.005-.145-3.507-3.54-2.192.03.11.106 3.395-.415 3.65-2.126 1.04.8-5.71.83-5.36-2.325-.367-2.472.8-4.037 1.763-3.503 2.158 1.185 3.68.868 4.114-3.16-.99-1.153 1.54-.318.83 1.376.347 6.58 2.507 7.618 1.668.16-.6-.555-1.298.527-1.43.627 1.203 2.413 2.14 2.004 3.566.27-.037 2.18.098 2.382.226.15.876.385 1.728.704 2.557-.694 1.13-2.596 2.014-2.39 3.58.203 1.552-3.16-.25-3.68.89-.918 2.005 1.513 2.312 1.405.342 3.025-.423 4.094 6.496 8.32 5.757.14-.94-1.314-1.718-1.66-2.513 2.162.32 1.992 2.054 3.727.066-.346-1.97-1.795-2.784-2.307-4.508.658-3.184 2.88.78 3.973 1.754-.3-1.702 2.475-2.463 2.17-4.123-2.4.22-6.733-3.946-3.402-5.886-1.053-.382-1.714.088-2.71-.452.73-.004 1.16-.284 1.29-.837-.267-.242-.04.117 0 0zM103.59 2.81c-.672 1.375.995.388 2.168.78-.67.155-1.325.353-1.97.593 1.238 1.084 3.01-.795 4.394-.513-.862 2.44 4.562-.35 5.024.603.996 2.054-7.702 2.015-7.216 1.265-.213.33.852 2.283.962 2.528-.692-.13-3.757-.74-3.422.914.172.85 2.155.24 2.6.114-.958 1.895.284.934 1.448 1.265.305 2.697-4.114-1.698-5.457.056.416.186.756.458 1.02.818-1.42-.333-2.383.058-2.884 1.174 2.023.858 5.922-.495 7.477.76 4.527 3.65 1.855-3.025.988-2.036 1.17.14 5.94.033 5.898-2.384-1.2.407-1.722.057-1.57-1.05 3.485.178 7.316-1.418 9.94-3.584-.88.146-1.764.273-2.65.383.6-1.69 5.36-1.227 6.847-2.406-1.442-.54-7.627-1.643-7.883-.582-.563-.74-3.847-2.625-3.3-.494-1.155-.496-2.87-.794-3.968.15-1.015.873-5.325-1.772-4.775.69-1.6.33-3.314-.673-5.062.23.606-.024 1.07.218 1.392.726-.104.212-.076-.872 0 0zM324.013 121.525c-.83-.452-2.547-.42-2.832.633.523.253 2.316.495 2.513.89-.553.128-1.03.394-1.43.8.72.268.897 1.51 1.465 1.5.682-.01.43-1.173.685-1.63-.012 0 4.28 2.472 4.865 2.866 1.32.89 1.86 2.613 3.114 3.692.888.764 4.45.473 2.363-.792 1.347-.627 2.217-1.418 3.714-.643.643.653 1.206 1.372 1.687 2.156 1.142.435 2.324.683 3.546.743 1.106-1.043-6.004-3.066-3.34-4.86-1.304-1.363-6.918-3.646-8.946-3.656-1.037-.352-2.072-.708-3.106-1.068-.342.445-.78.75-1.318.912-2.057 2.804-1.973-.995-2.98-1.543-.926-.506.077.04 0 0zM295.66 120.605c1.432 2.743 1.68 3.65 4.354 4.415 1.432.41 2.225-.402 2.976 1.114 2.724-1.32.996-4.776 3.543-5.565-1.202-1.92-2.9-3.706-.113-4.926-1.304-.54-2.15-1.157-3.163-2.128-.73 1.4-2.012 3.388-3.19 4.45-.726.656-2.3.47-2.116 1.72.15 1-1.67.24-2.29.92.725 1.388.682-.75 0 0zM231.506 137.707c.02 2.25-2.672 3.932-4.49 4.446-1.49 3.498-.838 6.41-.48 9.824.146 1.39 2.66.124 3.028-.312 1.374-1.622 1.88-5.106 2.555-7.134.436-1.307 2.59-6.705-.614-6.823.006.688.546.02 0 0zM170.73 52.385c-.613 0 1.73 4.29 1.73 3.4 0 1.56 1.12 1.038-.65 1.997.21-.114-.66 2.027-.647 2.154.478.217 1.52.364 1.85.775-1.094.342-2.134.758-2.525 1.928 1.396-.3 1.926-.282 2.793-1.345.844.79 3.378.204 3.953-.71-.25-.163-.48-.35-.69-.56 1.69-1.51-1.75-5.854-3.438-7.03 1.595-1.392 1.423-3.288-.762-2.266-.39-.96.978-1.03.765-1.932-2.29-.236-2.892 3.59-2.378 3.59zM62.368 22.28c2.237 3.632 4.192-2.35 7.157-2.038-.043.066-.048.098-.014.098-.148.66-1.397 1.218-1.818 1.976 1.522.962 1.705.506 3.253.4-.47.617-2.078.633-2.18 1.452.834.615 4.92.425 4.844.996-.875.543-4.614-.687-4.592 1.187.018 1.585 2.784.716 2.857 2.377.085 1.932 6.418-.102 7.204-.844 1.32-1.247 3.03 2.388 4.594.56.133-.525-.11-.592-.727-.2-.21-2.317 1.9-.2 2.633-1.31 1.208-1.83-4.09-1.357-2.396-3.517-.5-1.925-.307-3.073-2.218-3.984-1.6-.763-.81 1.714-.98 2.13-1.543.925-1.383-3.62-3.763-.686-.053-.324-.01-.64.127-.95-.92-.66-1.88.045-2.912.194 2.285-3.31-4.09.22-3.36.22.033.044-.233-.453-.233-.427-.062-.02 2.127-.49 2.56-1.608-1.74-1.527-6.636-2.728-9.06-1.894.457.644.862 1.23 1.062 1.98-2.172.444-2.963 2.39-2.04 3.89.25.406-.22-.36 0 0zM290.97 123.684c-1.503-3.092-8.084-7.337-11.275-7.688.552 1.74 4.116 4.794 5.57 5.89 2.156 1.626 3.992 7.047 7.466 6.296-.254-1.2-.31-2.41-.164-3.627-.724.064-1.256-.226-1.597-.87zM292.566 124.554c.097-.003.02-.1 0 0 .02 0 .004-.018 0 0zM94.868 11.254c-3.95.645 2.13 2.18 1.507 4.228-.718 2.362 7.14 1.762 8.45 1.95 6.873.986 2.142-3.02-2.95-2.236-1.61.25-2.884-.12-3.718-1.478 1.413-1.565-.852-1.265-1.87-1.168.173-.535-1.07-1.354-1.42-1.296zM161.66 40.58c3.295-.965 1.94-2.895 1.505-5.193-1.6.69-3.187.77-4.736 1.212-1.165.33-.818 2.255-1.76-.377-.536-1.5-2.214 1.105-2.337 1.333 1.764 1.245 2.782-.718.643 1.256 2.982.528 2.37 3.035 6.685 1.77zM314.79 80.72c-1.77-.432-2.985.182-3.645 1.84 1.946 1.587 3.24-1.215 5.442 1.31.374-.705.374-1.892.63-2.223 3.893 2.785 2.826-1.938 3.19-3.725.237-1.158 1.41-3.802-1.398-3.365-.353.055-1.042 6.563-2.625 3.843-.978 1.11.088 2.235-1.595 2.32zM369.17 171.397c-.715.72-1.3.46-1.757-.78-2.168 3.485-5.217 5.68-8.327 8.268 3.674 5.92 10.5-7.192 10.085-7.488-.18.11.37.263 0 0zM75.435 11.71c-1.13-.388-1.747.844-2.546 1.343.946.696 1.71.506-.765.816-.05 1.137 4.83.602 5.79 1.118-.862.496-1.738.377-2.686.654 0 2.454 4.867-.452 5.84-.288 1.522.255 2.5.203 2.93-1.416.44-1.657-1.695-.278-2.19-.593-.116-1.827.38-3.06-2.08-1.34 1.447 1.34.818 1.78-.855 2.07-.848.146-2.437-2.02-3.44-2.364zM96.174 6.086c2.108.355 2.537-.608 3.52.568-.9-.18-1.727-.005-2.482.524 1.824 1.028 7.108 2.39 7.755-.725.01 0-9.095-6.418-7.167-2.205-.26.044-2.014.252-2.056 1.008.858.087 1 .363.43.83.66.112.106-.147 0 0zM224.203 16.338c.465 1.926-1.73 2.014-.71 3.768 1.49 0 1.728.25 2.127-1.18.608-2.178 4.688-3.91 6.7-4.63 3.272-1.167 3.1-2.405.058-1.397-2.566.85-5.876 3.053-8.175 3.438.096.396.387-.065 0 0zM374.787 165.51c-3.846 1.288-2.723-5.07-5.743-4.34.473 2.447 2.892 3.507.994 5.972-1.632 2.12 1.24 2.26.022 4.5 1.168.857 5.585-5.418 4.727-6.133-.496.165.358.297 0 0zM302.09 11.774c2.208.608 2.552-.14 5.554-.3-.02-.14-2.31-1.78-.478-1.792 3.212 4.306 3.46-4.086-2.096-1.11.307.34.366.715.176 1.125-.097.04-2.473-.894-2.36-.885-2.33-.197-3.24 2.29-.797 2.962zM188.963 11.09c.986-.36 1.515-.715 1.908.37-.874.19-2.79 2.347-.648 1.172 0 1.776-1.543 2.65 1.092.904.82-.543 2.213-2.752 2.675-3.463-1.56-.364-3.21-1.81-4.087-.033-2.602-1.46-5.467-.03-1.393 2.266.15-.404.3-.81.453-1.216.385-.14-.132.352 0 0zM167.19 55.808c-1.37.065-.727 1.002.118 1.413-.864.542-.887.907-.068 1.096-1.63 3.826 3.177.878 3.075-.916-.01-.172.568-3.205-.578-3.106-1.733.15-1.392 1.46-2.546 1.514zM315.6 57.127c.684 2.63 1.798 9.56 4.202 9.143-2.714-2.465-.54-4.323-1.533-6.75-.802-1.957-1.866-3.892-2.402-5.877-.963.627-.496 2.604-.267 3.484.136.52-.143-.553 0 0zM123.746 60.996c-1.126.12-4.256 4.963-3.42 5.825 2.215-.73 3.53.743 5.02.86 1.175-1-.333-1.995-.323-3.217-3.543.224-1.263-1.836-1.277-3.467-.486.05.005.613 0 0zM68.278 12.498c.52-.02 4.808-1.236 3.957-1.93.312.286.327.63.044 1.033.817.636 2.894-1.698 3.238-2.385-1.032-.293-3.873-.098-4.71.436-1.105.707-6.474 2.995-2.53 2.848zM103.452 39.34c-.243-1.522-3.243-2.583-4.397-3.733-1.156.625-1.12 2.73-1.937 3.73.948-.037 1.355.395 1.223 1.295 1.192-.413 1.247-1.655 2.254-1.877.293-.065 3.05 1.782 2.858.584zM91.045 19.01c-.032-.475-.245-.845-.638-1.11-.65.088-2.27.433-2.832.94-.29.34-.183.674.32 1.005-.894.692-1.332-.12-1.996.663 1.197 1.688 1.736.98 2.32 3.087.927-.11 3.94-3.14 1.284-3.664.447-.418.96-.724 1.54-.92.036-.578-.27.124 0 0zM307.92 125.33c1.31.594-.02 1.21.582 2.108 2.44-.266-.598-2.956.766-3.617 1.064-.515 1.024 2.913 2.088 3.09.533-.46 1.264-.753.544-1.61-1.203-1.434-.39-2.518-.72-3.292-1.3.318-3.023.618-2.374-1.287-.96.014-1.757 4.214-.887 4.61zM96.495 20.584c.21-1.152 1.188-.685 1.788-1.93-.813-.345-4.188-1.06-4.776-.34-2.786 3.406 1.083 4.184.553 2.353.816.09 1.628.062 2.435-.083.04-.215-.777.396 0 0zM321.58 69.9c-.905-.393-2.377-2.127-3.25-1.713.467 1.143-2 6.748 1.18 5.25-.504-.297-.95-.666-1.337-1.105 1.334-.622 1.43-.35 2.683.174.71-1.44.385-1.034 2.453-1.44-.168-1.073-.744-1.462-1.73-1.165zM193.512 8.696c.745-.466 1.217-.436 1.418.092-.396.02-.708.193-.937.517 2.004.58 4.277.522 5.764-1.19-1.175-.55-4.02-1.862-3.915-.082-.886.255-1.876-.845-2.097-1.533-.384.304-1.47 1.27-1.66 1.493.124 1.12.6 1.354 1.427.703zM221.1 24.19c.27.682 4.03 1.227 4.318 1.132-1.485-1.674-1.593-2.593-1.015-4.71-2.05-.262-3.988 1.866-3.304 3.58zM335.084 170.72c-1.174 4.518 3.14 5.056 3.712.045-1.61.282-2.334-.21-3.712-.044-.194.747.618-.073 0 0zM302.856 131.404c0-1.9-9.25-3.612-9.703-1.69 2.848.593 6.783 1.89 9.703 1.69 0-.226-.212.014 0 0zM99.895 106.08c-1.56-2.694-7.692-4.192-9.816-1.89 1.417.23 2.47-1.165 3.828.08 1.332 1.222 4.24 2.874 5.987 1.81-.086-.147-.905.552 0 0zM257.92 3.635c-.46.163-.912.345-1.355.55 1.542.35 7.827 2.155 5.957-1.673-.41-.136-4.255.368-4.602 1.123-.05.108.407-.885 0 0zM92.165 13.246c-.352-2.397-3.163.233-3.508.562-.363.346 4.324 4.99 3.508-.562zM305.217 104.367c-.148-.167 1.217 1.6 1.64 1.45.36-.128.306-3.437.252-3.796-.426-2.815-3.57.456-1.893 2.347.324.366-.145-.163 0 0zM87.186 8.2c11.31 1.5-.288-2.406-.506-1.425.635-.002 1.078.247 1.33.748-1.53-.11-1.804.116-.824.677zM309.196 113.01c4.457.113.27.37 3.068 1.247 1.115.35 1.24-.31 1.75-.83 2.35-2.408-4.676-3.233-4.818-.418.7.017.007-.142 0 0zM100.36 108.462c.207.52 5.336-.094 5.48-.756-2.16-1.595-2.242-1.213-4.497-1.426 1.28 1.778-1.11 1.86-.983 2.182zM104.074 192.644c.015-.11-.03-.01 0 0 .003-.018-.01-.003 0 0zM103.335 193.453c-.012-.03.956 1.593.945 1.667-.71-.152-1.35-.038-1.927.34.936.743 4.78-.002 5.756-.446-1.06-.345-4.175-3.55-4.775-1.56.12.297.116-.385 0 0zM264.048 112.458c-1.16-.628-.096 3.185.178 3.637 2.723.353.94-3.033-.178-3.637-.125-.068 1.08.583 0 0zM263.98 6.488c3.142-2.226 4.666-.78.196-3.03.46.7-.117 2.376-.195 3.03.822-.583.064-.527 0 0zM312.116 11.027c1.587.824 3.477.742 5.028-.1-1.687-.682-4.003-.2-5.44-1.074-.196.545-.06.937.412 1.174zM310.05 83.85c.29.333 1.945 2.553 2.15 2.527 1.653-1.41-.366-4.448-2.15-2.526.158.182.243-.262 0 0zM50.975 65.738c.282.426 1.838 2.04 2.516 1.34-.053-1.3-3.602-4.133-4.442-2.8.607.533 1.25 1.02 1.927 1.46.456.688-.355-.536 0 0zM354.298 21.708c1.58-.24-3.306-3.058-3.966-.27 1.307.296 2.63.386 3.966.27.193-.03-1.33.202 0 0zM93.3 7.578c.795.94.56 2.815 3.04 1.125.922-.628-2.632-2.662-3.04-1.125.164.194.112-.422 0 0zM107.233 19.875c-2.317.718 2.803 1.602 3.054 1.584-.458-1.34-1.69-2.008-3.054-1.585zM90.215 29.274c.208-3.392-2.112-1.517-3.132-.665.97.574 2.015.795 3.132.664.05-.833-1.144.314 0 0zM256.944 2.885c1.08-.084 2.082-.41 3.006-.976-.634-.428-4.24-.868-4.42.828.47.05.943.098 1.414.147zM308.912 15.28c-.788-1.946-2.372-1.267-3.536-.183 1.162.413 2.34.474 3.536.183-.287-.706-1.162.48 0 0zM303.885 96.304c.57-1.25.468-2.298-.302-3.146-1.52.582-1.326 2.978.302 3.146.235-.86-.557-.058 0 0zM184.602 78.478c1.65-.23 1.67-2.008.672-2.964-1.078.72-1.17 1.68-.672 2.964.543-.076-.298-.767 0 0zM292.806 99.606c-1.264.748-.6 2.075.866 1.693.147-.625.78-2.666-.866-1.694-.11.065.596-.352 0 0zM78.867 9.34c1.47.35 2.265-.136 2.387-1.457.137-.027-4.72 1.55-2.387 1.456zM343.627 126.315c.55-.11 2.05-1.117 1.013-1.705.03.017-2.667 1.462-3.136 1.64.704.312 1.41.334 2.123.065zM312.662 120.703c.633-.074.996-.428 1.09-1.063-1.274.105-4.544.3-4.9 1.054 1.27.013 2.54.016 3.81.01zM308.853 120.694c-.078 0-.027.056 0 0-.012 0-.004.01 0 0zM130.593 29.514c-.326-4.644-3.915 1.84 0 0-.05-.698-.73.343 0 0zM92.887 16.062l2.074.66c.628-1.572-1.644-2.402-2.073-.66.657.21.214-.873 0 0zM108.834 32.628c1.808-.797.167-2.506-.87-1.087-.867 1.184.34 1.32.87 1.088zM196.063 12.023c-1.183-.27-1.77.168-1.76 1.313 1.22 0 2.7.582 1.76-1.313-.557.076.132.265 0 0zM315.118 82.822c-.618-1.08-3.393 1.152-1.366 1.728.412-.764 1.925-.75 1.366-1.728zM191.03 80.77l-.103-1.592c-.837.14-1.654.356-2.452.645.815.416 1.667.732 2.556.946.154-.452-.55.11 0 0zM227.714 5.832l.794-.92c-.56-.7-2.288-.425-2.174.64l1.38.28c.264-.306-.506.054 0 0zM359.593 142.695c.867.51 2.016 1.497 3.06 1.384-.403-.48-4.827-2.425-3.06-1.385zM229.254 4.915c.693.28 1.78.036 1.642-.977-.23-1.68-2.44.654-1.642.977zM22.587 52.734c-.78.112-1.478.422-2.097.93 1.013 1.476 2.5-.957 2.097-.93zM313.7 131.888c-.69.535 3.354-.425 2.752-1.347-1.098.08-2.016.53-2.752 1.348zM318.24 124.067c.314-.063 2.438.364 2.465-.056-.767-.78-2.623-.896-3.323.063l.86-.006c.57-.116-.207.042 0 0zM216.662 7.105c.676-.21 1.357-.227 2.043-.048-.43-.727-.3-1.31.388-1.75-.74-.68-2.098 1.37-2.43 1.798.507-.09.614-.79 0 0zM83.922 18.346l-1.814-.193c.293 2.243 2.308.346 1.814.193zM309.405 110.955c1.716-.12.01-2.485-.916-2.75.093 1.195 1.12 1.447.915 2.75.23-.016.038-.243 0 0zM317.426 119.717c-.832.552-1.183.314-1.054-.715-1.546 2.243 2.02 1.525 1.054.715-.255.074.233.195 0 0zM0 41.09c.91.267 2.44 1.55 2.93.29-.943-.444-1.92-.54-2.93-.29.414.122 1.008-.194 0 0zM81.535 6.982c-1.008-.46-1.9-.283-2.836.498 1.097.1 1.964-.19 2.835-.498zM6.167 48.986l.504-.69c-.417-.905-.99-.89-1.716.045.22.603.624.818 1.213.646zM376 137.48c.28.01-1.982.14-1.007.75 1.17.733 1.627-.73 1.006-.75zM156.967 23.888c.443.475 1.29 1.297 2.024.798-.285-.77-1.147-1.108-2.023-.798.726.777.662-.234 0 0zM209.38 83.47c.618-.184 1.017-.59 1.196-1.22-3.553.122-1.05 1.164-1.197 1.22zM292.676 17.106c-.54.035.35 1.372 1.468.645l-1.468-.644zM115.478 63.91c.608.906 1.317 1.197 2.125.87-.526-.745-1.234-1.035-2.125-.87.416.548.863-.162 0 0zM218.593 28.3c-.63-.112-.99.128-1.086.72-.076.924 2.632-.3 1.086-.72-.753-.018.07.018 0 0zM338.088 23.206c.464-.054.928-.11 1.393-.163-.573-1.396-2.126-.186-1.392.163zM227.54 25.608c-.695-.18.376 1.285 1.44 1.024-.48-.34-.96-.682-1.44-1.024zM309.27 105.668l-1.497-.27c.123.392 1.793 1.426 2.11.892-.204-.207-.41-.414-.613-.622zM238.044 19.3c.818-.01-.407-1.332-.31-1.18-1.085.532-.73 1.197.31 1.18zM99.724 41.7c-.59.485 1.015.526 1.667-.515-.643-.087-1.2.085-1.666.516zM311.748 107.62c-1.653-.544-1.587-.124.2 1.26l-.2-1.26c-.305-.285.322.303 0 0zM103.618 43.302c.558-.464.567-.873.028-1.225-1.005-.19-.643 1.614-.028 1.225zM224.12 4.8c-.736-.114-1.297-.62-1.97-.04.85.36 1.028.367 1.97.04zM202.638 82.924c-.81.017-1.616-.025-2.42-.125.773.78 1.58.822 2.42.124-.43 0-1.038.62 0 0zM293.325 124.565c-.177-.885-.678-1.164-1.503-.836.235.238.935 1.32 1.503.835-.17-.29-.336.286 0 0zM157.397 23.075c.68.294 1.27.518 1.998.53-.517-.756-.64-.787-1.998-.53zM327.222 163.34c-.916.314 1.226.386 1.704.187-.56-.302-1.127-.364-1.704-.188zM95.997 108.63c-.168.05.795.89 1.536.136-.485-.415-.997-.46-1.536-.137zM44.574 57.595c-.044.638.12 1.215.49 1.73.502-1.093.7-1.047-.49-1.73.08.764.452.26 0 0zM216.566 6.362l.914-1.01c-1.397-.3-1.682 1.775-.914 1.01zM86.43 10.086c-.22-.63-.607-.893-1.163-.794.03.882.417 1.147 1.162.794-.29-.33-.846.278 0 0zM117.673 69.895c.545-.255.705-.806.48-1.652-.715.077-1.25 1.388-.48 1.652zM277.125 14.463l1.126-.262c-.913-.454-2.07.352-1.125.263zM185.66 50.497c.08-.332-.013-.606-.278-.822-.348-.103-.84.822-.614.822h.89zM187.344 54.047c.248-.374.185-.72-.187-1.04-.915.586-.37 1.41.187 1.04zM14.18 115.92c-.007.384.14.7.444.948.45-.577.51-1.62-.443-.95.16.286.38-.265 0 0zM329.155 129.267c.416.602.74.48.97-.37-.37-.392-.694-.27-.97.37zM107.32 108.37c1.09-.004 1.09-.004 1.448-.396-.995-.225-.995-.225-1.448.397zM347.633 125.685c.783.844.783.844 1.433.845-.516-.813-.64-.894-1.433-.845zM185.316 74.326c.29-.61.197-.923-.278-.94-.41 1.005.233 1.3.278.94zM261.986 9.087c.102-.154-.324-1.343-1.248.53l1.248-.53zM306.356 131.213c-.34-.285-.71-.324-1.248-.115.752.632.754.632 1.248.115zM255.57 3.61c-.39-.335-.812-.396-1.263-.182.22.64.64.702 1.264.183-.698-.376-.366.114 0 0zM92.996 5.04c.812.137.877-.072.194-.63-.43.105-.495.314-.194.63zM224.52 3.542c-.475.212-1.095-.324-1.613.48.678.023 1.215.133 1.612-.48zM1.54 62.565"/><path d="M85.144 15.247c.676-.316.764-.603.263-.86-.824.036-.47 1.033-.263.86zM137.426 190.81c.555.39.98.578 1.554.506-.36-.726-.913-.436-1.554-.505zM224.97 6.106l.764-.82c-2.51.485-.533.648-.765.82zM97.45 9.91c-.58 0-1.23-.075-1.74.2.615.224 1.194.157 1.74-.2-.23 0-.815.388 0 0zM200.455 10.39c2.34-.73-2.733.852 0 0 .12-.037-.23.07 0 0zM338.096 46.23c-.18-.754-.52 1.154-.53.977.49-.2.666-.524.53-.976zM305.8 13.39c-.373-.28-.723-.182-1.053.296.213.182 1.38.433 1.052-.295zM101.997 52.536c-.473-.003-.673.272-.756.69.694.233.79.143.757-.69zM308.546 132.26c.45.12.84.226 1.444.39-.733-.588-.733-.588-1.444-.39zM188.99 30.755c.464-.045.762-.21.953-.663-.477.065-.848.128-.954.663zM316.285 124.096c-.55-.012-.607.176-.168.564.736.008.79-.18.168-.564zM99.017 180.577c-.415.44-.407.95-.494 1.478.532-.222.533-.225.494-1.478zM275.47 108.654v-.773.774zM193.415 50.57c-.05-.304-.097-.608-.146-.912-.096.21-.208 1.78.145.912.11-.27-.042.103 0 0zM309.294 131.077c.35.153.656.144 1.004-.22-.492-.245-.792-.196-1.004.22zM196.952 48.56c-.165-.346-.426-.375-.78-.09-.236.646.654.57.78.09-.06-.073-.077.295 0 0zM361.81 107.11c-.157-.4-.456-.533-.894-.404-.03-.075.756 1.35.895.403zM353.728 128.324c-.316-.172-.574-.312-.83-.453.36.603.36.603.83.454zM221.814 6.195l-1.15.07c.32.538.32.538 1.15-.07zM179.572 77.735c.302-.257-.45-.807-.722 0-.19.57.657.056.722 0zM45.752 60.752c.147-.462.172-.773-.117-1.054-.315.408-.315.408.117 1.054zM360.308 109.844c.357.26.648.417 1.13-.046-.66-.176-.66-.176-1.13.046zM350.233 126.865c.26.215.472.393.737.614.024-.736-.05-.796-.737-.615zM44.953 54.148c.098.34-.006.802.51.902.206-.535-.17-.72-.51-.902zM170.21 49.008c-.488.04-.704.257-.805.762.484-.166.72-.358.805-.762zM42.283 49.84c-.533.236-.67.596-.408 1.08-.042.04.814-1.297.408-1.08zM340.73 53.768c.24.595.522.74.85.436-.114-.638-.397-.783-.85-.436.2.184.104-.327 0 0zM379.59 176.703c-.298-.38-.84-.016-.388.335.462.335.592.224.39-.335zM245.844 19.235c1.62-.542-.907.303 0 0 .135-.045-.076.025 0 0zM86.815 12.458c.267-.353.234-.61-.1-.77-.404.25-.37.508.1.77.08-.29-.203-.23 0 0zM234.156 109.648l-.962.46c.718.013.718.013.962-.46zM196.24 26.054c-1.667.495.73-.217 0 0-.156.046.058-.018 0 0zM203.722 7.166c-.563.102-.563.102-.802.527.34-.067.674-.115.802-.527zM113.306 191.018l.967-.386c-.58-.21-.886-.215-.967.386zM42.914 51.357c-.172.257-.158.55.04.877.426-.182.364-1-.04-.877zM226.957 4.096c1.087.38-.93-.326 0 0 .195.068-.06-.02 0 0zM247.835 16.254c.856-.88-.888.914 0 0 .083-.085-.312.32 0 0zM306.61 106.516c.15.3.298.595.72.758-.326-.62-.326-.62-.72-.758zM99.452 59.19c.088-.405.03-.685-.43-.89-.15.472-.005.716.43.89zM310.46 52.528c.577-.143.542-.297-.105-.46-.47.098-.434.252.105.46zM89.602 9c-.544.25-.526.376.054.377.494-.197.476-.323-.054-.377zM294.695 124.918c1.273-.238-.996.186 0 0 .105-.02-.208.04 0 0zM115.594 190.255c-1.26-.418.84.28 0 0-.25-.083.05.017 0 0zM307.12 130.876c.53 1.04.94-.6 0 0 .057.11.086-.054 0 0zM3.32 62.16c-1.308.444.44-.15 0 0-.15.05.035-.012 0 0zM22.72 51.676c.49.095.635-.138.603-.588l-.604.588zM229.17 2.758c-.11-.606-1.037-.274 0 0-.033-.176-.19-.05 0 0zM321.456 133.908c.586.58.84-.827 0 0 .084.083.108-.106 0 0zM46.737 56.212c-.242-.183.842.64 0 0-.02-.014.098.075 0 0zM345.41 124.303c.104.072.826.58 0 0-.004-.003.12.084 0 0zM96.528 100.274c-.497.943.27-.51 0 0-.083.157.02-.04 0 0zM305.8 109.72c.398-.617-1.074 1.668 0 0 .102-.158-.124.193 0 0zM101.335 35.423c-.67-.853-.625.244 0 0-.095-.12-.075.03 0 0zM303.44 131.086c.433.506.654-.123 0 0 .08.094.12-.022 0 0zM376.97 136.424c-.712.174 1.995-.486 0 0-.058.014.115-.028 0 0zM330.748 61.886c-.8.438.323.773 0 0-.095.052.03.076 0 0zM324.992 127.868c.48-.683-.567-.69 0 0 .066-.093-.068-.083 0 0zM304.636 110.642l-.347.426c.18-.076.496-.058.346-.426zM187.24 12.755c.185.257.364.477.738.302-.153-.332-.373-.458-.737-.302zM183.716 51.618c1.504-.58-1 .386 0 0 .107-.042-.086.033 0 0zM99.586 12.624c-.344-.313-.484.37 0 0-.053-.05-.08.06 0 0zM71.285 13c.697.326.545-.845 0 0 .063.03.022-.036 0 0zM87.556 13.23c-1.232.298-.372.483 0 0-.302.073-.44.57 0 0zM310.468 109.34c.18-.16.03-.098 0 0 .033-.028.01-.03 0 0zM310.567 109.253c.525.058 1.17.26 1.776.396-.594-.39-1.284-.808-1.776-.397.02.002.014-.013 0 0zM282.79 120.896c.57.656.665-.285 0 0 .08.09.07-.03 0 0zM87.812 13.688c-.815.23.978-.277 0 0-.073.02.08-.023 0 0zM135.27 2.87c.563.256-.59-.268 0 0 .056.025-.057-.026 0 0zM11.513 114.063c-.48-.245.952.487 0 0-.043-.02.1.052 0 0zM300.515 13.808c-.286-.512-.417.24 0 0-.04-.074-.062.035 0 0zM162.023 16.593c-.46 1.87.166-.678 0 0-.027.113.013-.054 0 0zM338.79 169.036c.074-.743-.06.58 0 0 .007-.07-.005.043 0 0zM45.26 55.91c-.567.397.368-.257 0 0-.06.042.033-.023 0 0zM185.813 53.794c.297.553.437-.133 0 0 .047.087.07-.022 0 0zM355.065 128.917c-.332.385.7.548 0 0-.027.03.06.048 0 0zM351.23 128.605c.613.81-.28-.367 0 0 .068.09-.02-.028 0 0zM311.04 130.79c.438.287.57-.134 0 0 .076.05.08-.018 0 0zM219.042 6.772c-.314.518.37-.61 0 0-.03.05.037-.06 0 0zM100.3 194.787c.54.553.498-.34 0 0 .08.082.065-.044 0 0zM96.645 97.876c-.83.573.426-.293 0 0-.09.062.034-.023 0 0zM80.674 133.535c-.116.67.108-.617 0 0-.01.065.01-.056 0 0zM225.966 25.556c1.038.4.163-.528 0 0 .138.053.02-.06 0 0zM309.77 107.36c-.45-.31.95.66 0 0-.036-.023.1.072 0 0zM354.45 132.06c.225.576-.096-.252 0 0 .026.063-.007-.023 0 0zM362.792 181.246c0 .824.31.236 0 0 0 .157.104.078 0 0zM221.086 130.938c-.078.137-.06.107 0 0zM311.228 121.982l.473.037c-.168-.172-.324-.142-.472-.038zM311.228 121.982c-.102-.01-.05.036 0 0-.02-.002-.01.007 0 0zM240.463 147.16c-.105.113.605-.65 0 0-.004.004.073-.08 0 0zM238.26 147.956c.568.728-.247-.316 0 0 .063.08-.012-.016 0 0zM362.945 135.107c-.13-.558-.43.17 0 0-.018-.078-.06.023 0 0zM238.278 129.122c-.582-.222.56.213 0 0-.055-.02.05.02 0 0zM343.138 54.755c-.375-.092.73.18 0 0-.03-.007.078.02 0 0zM251.423 15.536c.606-.195-.378.12 0 0 .064-.02-.033.01 0 0zM188.495 54.9c-.218.333.468.353 0 0-.024.036.067.05 0 0zM87.13 12.837c-.072-.027-.597 1.382 0 0-.028-.01-.08.184 0 0zM76.834 10.672c-.445-.295-.494.242 0 0-.065-.043-.072.036 0 0zM261.503 10.315c.132.214.26.003 0 0 .024.04.04 0 0 0zM299.77 10.325c-.237-.467-.442.17 0 0-.036-.07-.07.027 0 0zM105.566 28.158c.232-.265-.24-.406 0 0 .04-.048-.036-.06 0 0zM160.54 93.997c.655.144-.5-.11 0 0 .067.014-.043-.01 0 0zM173.367 47.844c-.244-.095-.208.213 0 0-.04-.015-.038.038 0 0zM114.163 46.206c.194-.34-.292-.41 0 0 .037-.064-.046-.065 0 0zM101.144 104.723c-.545.337.15-.09 0 0-.067.042.013-.008 0 0zM305.546 109.394c-.01.11.028.042 0 0-.002.02.008.013 0 0zM305.546 109.394c.014-.186.028-.384.05-.72-.23.42-.237.442-.05.72zM224.194 2.79c-.543-.275-.395.336 0 0-.07-.036-.058.05 0 0zM140.87 2.32c.578.26-.585-.26 0 0 .054.025-.054-.024 0 0zM112.897 117.034c-.19.503.52.223 0 0-.025.067.073.03 0 0zM190.794 28.85c-.24.485.305-.613 0 0-.022.044.03-.06 0 0zM87.218 24.792c-.288-.04.314.045 0 0-.028-.004.028.004 0 0zM107.704 27.88c.13-.006.126-.006 0 0zM223.825 28.27c.312-.496-.172.27 0 0 .034-.054-.015.023 0 0zM223.763 28.33c-.06.054.03.108 0 0-.008.008.005.02 0 0zM127.93 19.868c.16-.044.14-.196 0 0 .04-.01.03-.04 0 0zM243.212 18.213c-.196-.185-.303.184 0 0-.03-.03-.036.022 0 0zM90.395 17.92c.062.025.02-.03 0 0 .01.004.004-.006 0 0zM90.296 18.054c.142-.19-.067-.31 0 0 .033-.044-.013-.064 0 0zM94.383 17.062c-.118.125-.044.046 0 0zM294.057 16.86c-.072-.188-.25.067 0 0-.01-.026-.036.01 0 0zM109.867 15.253c.207.065.067-.137 0 0 .035.01.013-.026 0 0zM116.737 11.378c-.35-.116.305.103 0 0-.035-.01.028.01 0 0zM116.895 10.716c.444-.23-.13.067 0 0 .054-.028-.004.002 0 0zM77.112 8.22c-.282-.318-.25.345 0 0-.027-.03-.023.033 0 0zM223.79 6.264c.114-.037.103-.268 0 0 .03-.01.02-.047 0 0zM222.717 6.017c.16.297.244-.027 0 0 .027.05.04-.004 0 0zM106.52 195.807c-.036-.044-.09-.11 0 0zM105.066 196.09c.4.025-.382-.023 0 0 .037.003-.035 0 0 0zM104.342 196.235c-.638.114.284-.05 0 0-.07.012.02-.004 0 0zM294.187 117.985c-.053.05-.148.142 0 0zM317.17 118.39c.034.034.11.107 0 0zM280.993 119.485c.062.158.214-.05 0 0 .01.023.03-.007 0 0zM13.28 115.01c.212-.018.048-.3 0 0 .034-.004.007-.05 0 0zM362.77 109.223c-.283-.103-.015.27 0 0-.034-.013 0 .026 0 0zM317.246 122.48c-.13-.01-.138-.01 0 0zM98.783 99.885c-.14.198.094.232 0 0-.02.03.014.035 0 0zM159.713 93.407c.37.013-.347-.013 0 0 .035 0-.032-.002 0 0zM112.003 90.974c.088-.23-.23-.24 0 0 .012-.033-.04-.04 0 0zM160 86.676c-.107-.05-.2.104 0 0-.027-.012-.038.02 0 0zM203.315 82.44c.042-.04.1-.093 0 0zM184.69 125.926c-.063.254.07-.273 0 0-.005.026.007-.023 0 0zM152.066 80.205c.048-.102-.106-.19 0 0 .01-.025-.02-.035 0 0zM324.96 68.943c.413-.28-.062-.155 0 0 .052-.035-.013-.034 0 0zM325.145 68.52c-.045.463.093.084 0 0-.007.072.024.02 0 0zM326.462 67.48c.088.084.357.06 0 0 0 0 .097.015 0 0zM302.092 129.22c-.15-.003-.16-.003 0 0zM353.355 129.395c.22.547-.07-.168 0 0 .026.064-.005-.01 0 0zM186.706 54.895c.235-.093-.074-.31 0 0 .04-.016-.013-.053 0 0zM355.924 130.5c-.34-.06.346.065 0 0-.032-.005.033.007 0 0zM43.732 51.442c.186.416-.095-.212 0 0 .02.046-.007-.014 0 0zM43.444 50.514c-.207.237.19-.217 0 0-.02.024.017-.02 0 0zM194.155 45.497c-.073-.31-.24-.04 0 0-.013-.054-.04-.006 0 0zM187.743 31.435c.297.16-.21-.112 0 0 .032.017-.018-.01 0 0z"/></g></svg>