<svg version="1" xmlns="http://www.w3.org/2000/svg" viewBox="0 0 97 97" enable-background="new 0 0 97 97"><g fill="#999"><path d="M21.943 36.2c3.385-8.824 11.943-15.102 21.943-15.102 9.997 0 18.555 6.28 21.94 15.102h6.717C68.907 23.805 57.44 14.724 43.886 14.724c-13.553 0-25.02 9.08-28.655 21.475h6.713zM65.685 53.725c-3.18 8.8-10.48 16.94-18.862 20.588 11.987-1.175 21.91-9.47 25.49-20.588h-6.628zM55.88 36.2h6.607c-3.313-9.164-12.17-12.55-17.92-12.55 5.158 2.626 9.223 7.102 11.314 12.55zM22.258 53.725h-6.683c3.823 9.582 13.718 11.81 17.686 11.81-4.92-2.506-8.835-6.7-11.002-11.81zM4.112 43.223h6.383c.604-8.76 7.422-22.656 20.507-28.354-14.646 1.435-26.215 13.498-26.89 28.353zM55.578 53.725c-3.57 8.43-11.924 14.36-21.64 14.36-12.43 0-22.635-9.706-23.438-21.94H4.12C4.93 61.892 17.99 74.46 33.937 74.46c13.285 0 24.57-8.72 28.438-20.735h-6.797zM17.923 38.964v11.928H14.95V38.964h2.973zM22.01 42.868c.255-.274.425-.473.88-.693.405-.17.98-.32 1.604-.32.524 0 1.117.1 1.572.353.93.488 1.167 1.285 1.167 2.65v6.035h-2.585v-4.968c0-.794-.018-1.08-.12-1.318-.203-.47-.66-.677-1.166-.677-1.368 0-1.368 1.098-1.368 2.2v4.763h-2.602V42.09h2.62v.778zM29.21 39.52h2.584v2.755H33.5v1.59h-1.724v3.968c-.017.54-.017.995.677.995l.93-.032v2.03c-.56.084-.898.133-1.37.133-.895 0-1.875-.05-2.432-.863-.356-.524-.37-1.15-.37-1.994v-4.258h-1.287v-1.588h1.287V39.52zM42.86 48.645c-.305.455-.608.896-1.065 1.32-.76.706-1.91 1.247-3.33 1.247-2.618 0-4.46-1.67-4.46-4.56 0-2.13 1.047-4.867 4.528-4.867.525 0 2.044.05 3.178 1.268 1.15 1.23 1.217 2.956 1.25 3.954h-6.302c-.017 1.097.61 2.197 2.01 2.197 1.42 0 1.91-.93 2.23-1.554l1.96.995zm-2.587-3.26c-.05-.373-.118-.86-.49-1.25-.32-.322-.812-.49-1.268-.49-.625 0-1.065.303-1.318.573-.353.39-.44.795-.523 1.167h3.6zM46.32 42.984c.577-.49 1.203-.88 2.553-1.014v2.3l-.86.134c-1.25.22-1.624.407-1.624 1.52v4.97h-2.603v-8.837h2.535v.927zM56.384 38.964l4.393 11.928H57.6l-.59-1.908h-4.395l-.592 1.908h-3.177l4.427-11.928h3.11zM54.78 41.8c-.153.61-.322 1.235-.49 1.843-.254.897-.71 2.298-.98 3.194h3.024L54.78 41.8zM68.58 48.813c-.32.508-.672 1.068-1.382 1.573-.678.473-1.54.794-2.536.794-1.69 0-4.376-1.014-4.376-4.615 0-2.567 1.485-4.73 4.427-4.73.98 0 2.652.27 3.768 2.112l-1.925 1.1c-.152-.324-.32-.626-.744-.93-.252-.17-.574-.305-.98-.305-1.402 0-1.876 1.606-1.876 2.67 0 1.166.575 2.636 1.96 2.636.136 0 .78 0 1.32-.606.22-.256.304-.457.39-.71l1.957 1.01zM70.152 39.52h2.585v2.755h1.708v1.59H72.72v3.968c-.017.54-.017.995.674.995l.932-.032v2.03c-.558.084-.896.133-1.368.133-.897 0-1.878-.05-2.434-.863-.356-.524-.372-1.15-.372-1.994v-4.258h-1.285v-1.588h1.285V39.52zM75.507 42.056h2.57v8.836h-2.57v-8.836zM75.507 39.462h2.57v1.573h-2.57v-1.573zM88.365 46.466c0 2.23-1.286 4.682-4.732 4.682-2.483 0-4.746-1.42-4.746-4.682 0-2.705 1.703-4.85 5.084-4.666 3.6.205 4.395 3.058 4.395 4.666zm-6.42-1.742c-.32.51-.44 1.116-.44 1.723 0 1.405.676 2.638 2.13 2.638 1.402 0 2.095-1.132 2.095-2.52 0-.977-.237-1.74-.726-2.21-.542-.51-1.152-.526-1.522-.49-.744.05-1.183.303-1.538.86zM91.693 42.868c.25-.274.422-.473.878-.693.407-.17.98-.32 1.605-.32.525 0 1.116.1 1.57.353.932.488 1.167 1.285 1.167 2.65v6.035h-2.586v-4.968c0-.794-.016-1.08-.12-1.318-.202-.47-.657-.677-1.163-.677-1.372 0-1.372 1.098-1.372 2.2v4.763h-2.598V42.09h2.62v.778zM12.823 80.925l1.664 5.764h-1.233l-.29-1.148h-1.768l-.298 1.147H9.665l1.625-5.765h1.533zm-.747 1.03h-.032l-.628 2.606h1.295l-.634-2.606zM17.05 80.925h1.31v3.8c0 .346 0 1.06.777 1.06.244 0 .81 0 .81-1.05v-3.81h1.28v3.816c0 .348-.007 1.18-.596 1.66-.4.32-.895.438-1.422.438-.604 0-1.224-.15-1.58-.478-.556-.525-.58-1.187-.58-1.705v-3.73zM22.29 80.925h1.21l1.486 2.694c.062.117.14.274.196.392.024.046.104.258.126.3h.04l-.03-.584c-.025-.39-.025-.438-.025-.66v-2.143h1.162v5.764H25.42l-1.533-2.797c-.126-.228-.134-.25-.432-.95h-.04c.008.164.04.895.04 1.044v2.702h-1.163v-5.765zM27.64 86.69v-5.765h1.27v5.764h-1.27zM55.784 86.69v-5.765h1.27v5.764h-1.27zM33.956 80.925v1.053H32.52v4.71H31.2v-4.71h-1.47v-1.053h4.226zM34.747 80.925h3.874v1.053h-2.615v1.224h1.798v1.053H36.02v1.36h2.78v1.075h-4.053v-5.765zM39.657 80.925h1.4c1.405 0 1.9.266 2.23.746.25.37.346.77.346 2.067l-.008.98c0 .653-.157 1.345-.793 1.667-.416.212-.77.25-1.232.29-.165.016-.99.016-1.94.016v-5.765zm1.29 4.735h.36c.51 0 1.03-.094 1.03-1.202 0-.197.015-.51.015-.707 0-.69-.015-1.17-.21-1.452-.245-.354-.52-.354-1.196-.354v3.716zM47.356 86.69l-1.76-5.765h1.265l.897 3.102c.132.47.228.802.274.982h.032c.086-.346.182-.692.275-1.037l.856-3.048h1.257l-1.72 5.764h-1.374zM50.844 82.96c0-.59.1-1.157.502-1.596.363-.4.905-.55 1.447-.55.59 0 1.13.142 1.516.558.32.345.502.856.502 1.783v1.398c0 .808-.134 1.327-.495 1.72-.48.518-1.17.573-1.54.573-.565 0-1.492-.203-1.78-1.178-.128-.41-.152-.91-.152-1.163V82.96zm1.29 1.804c0 .606.117 1.04.682 1.04.682 0 .682-.638.682-1.04v-2c0-.402 0-.888-.668-.888-.697 0-.697.66-.697.887v2zM58.006 82.864c0-1.32.707-2.066 2.05-2.066.348 0 .865.07 1.265.385.52.407.583 1.116.6 1.58h-1.266c-.007-.284-.023-.912-.65-.912-.16 0-.355.063-.48.18-.204.19-.212.472-.212.63v2.192c0 .314 0 .92.7.92.517 0 .675-.426.675-1.046h1.272c-.008.416-.016.463-.055.706-.047.23-.126.644-.605 1.03-.407.33-1.004.385-1.256.385-.668 0-1.132-.157-1.492-.51-.236-.228-.544-.557-.544-1.737v-1.736zM63.012 80.925h3.873v1.053H64.27v1.224h1.8v1.053h-1.785v1.36h2.78v1.075h-4.052v-5.765zM.144 90.816h3.833v1.052h-2.56v1.24H3.12v1.07H1.417v2.403H.144v-5.764zM4.685 92.85c0-.59.1-1.154.502-1.594.36-.4.903-.55 1.445-.55.588 0 1.13.142 1.516.56.323.344.503.854.503 1.78v1.4c0 .81-.133 1.327-.495 1.72-.48.518-1.17.574-1.538.574-.566 0-1.494-.204-1.784-1.18-.126-.406-.148-.91-.148-1.16v-1.55zm1.288 1.807c0 .605.117 1.037.684 1.037.682 0 .682-.636.682-1.037v-2.004c0-.4 0-.887-.668-.887-.698 0-.698.66-.698.887v2.004zM10.776 96.582h-1.25v-5.765h1.863c.933 0 2.12.126 2.12 1.672 0 .73-.29 1.288-1.1 1.53l1.257 2.562h-1.375L11.2 94.226h-.424v2.356zm0-3.275c.715 0 .824 0 1.005-.064.402-.14.433-.455.433-.77 0-.4-.125-.596-.377-.69-.197-.07-.353-.07-1.06-.07v1.594zM16.337 92.946c0-.512 0-1.242.596-1.793.44-.4.958-.454 1.516-.454 1.09 0 1.868.665 1.868 1.78H19.06c-.023-.51-.28-.745-.713-.745-.66 0-.708.566-.708.904v1.813c0 .754.14 1.218.762 1.218.66 0 .66-.54.66-.752v-.394h-.677v-.958h1.933v3.08h-.566l-.164-.4h-.056c-.165.196-.424.494-1.312.494-.58 0-1.115-.165-1.49-.638-.315-.4-.394-.88-.394-1.593v-1.564zM21.333 90.816h1.288v4.69h2.538v1.076h-3.825v-5.766zM25.783 92.85c0-.59.102-1.154.503-1.594.36-.4.902-.55 1.444-.55.59 0 1.13.142 1.516.56.32.344.503.854.503 1.78v1.4c0 .81-.135 1.327-.497 1.72-.48.518-1.17.574-1.54.574-.564 0-1.492-.204-1.782-1.18-.124-.406-.148-.91-.148-1.16v-1.55zm1.288 1.807c0 .605.118 1.037.684 1.037.682 0 .682-.636.682-1.037v-2.004c0-.4 0-.887-.667-.887-.7 0-.7.66-.7.887v2.004zM30.61 90.816h1.9c.497 0 .977.03 1.307.236.424.258.62.746.62 1.224 0 .7-.346 1.147-.794 1.25v.038c.386.055.92.472.92 1.32 0 .424-.063.855-.45 1.24-.415.425-.91.456-1.64.456H30.61v-5.764zm1.235 2.348c1.013 0 1.343-.03 1.343-.76 0-.7-.51-.7-.77-.7h-.572v1.46zm0 2.507h.628c.503 0 .82-.234.82-.824 0-.275-.072-.597-.37-.722-.182-.07-.63-.07-1.077-.07v1.617zM38.1 90.816l1.665 5.765h-1.232l-.29-1.145h-1.768l-.3 1.146h-1.23l1.624-5.764h1.53zm-.746 1.03h-.03l-.63 2.607h1.297l-.636-2.608zM40.292 90.816h1.288v4.69h2.537v1.076h-3.825v-5.766zM47.057 92.756c0-1.32.707-2.067 2.048-2.067.346 0 .865.07 1.267.385.518.41.58 1.115.596 1.58h-1.265c-.007-.283-.023-.912-.65-.912-.157 0-.354.064-.48.18-.205.19-.213.47-.213.63v2.19c0 .315 0 .92.7.92.518 0 .675-.425.675-1.045h1.273c-.007.416-.016.463-.055.707-.047.228-.126.644-.605 1.028-.408.33-1.005.385-1.257.385-.666 0-1.13-.157-1.49-.512-.237-.227-.543-.557-.543-1.735v-1.734zM52.04 90.816h1.28V93h1.618v-2.183h1.296v5.765H54.96v-2.49h-1.633v2.49h-1.29v-5.766zM60.067 90.816l1.665 5.765H60.5l-.29-1.145h-1.77l-.298 1.146H56.91l1.625-5.764h1.532zm-.746 1.03h-.03l-.63 2.607h1.298l-.637-2.608zM62.416 90.816h1.21l1.484 2.695c.063.118.14.275.197.392.023.048.102.26.126.3h.038l-.03-.582c-.024-.393-.024-.44-.024-.66v-2.144h1.163v5.765h-1.037l-1.533-2.796c-.125-.227-.133-.252-.432-.95h-.04c.01.165.04.896.04 1.043v2.703h-1.162v-5.764zM67.555 92.946c0-.512 0-1.242.597-1.793.44-.4.958-.454 1.515-.454 1.093 0 1.87.665 1.87 1.78H70.28c-.022-.51-.28-.745-.713-.745-.66 0-.707.566-.707.904v1.813c0 .754.142 1.218.762 1.218.66 0 .66-.54.66-.752v-.394h-.676v-.958h1.932v3.08h-.565l-.165-.4h-.055c-.165.196-.424.494-1.31.494-.583 0-1.116-.165-1.493-.638-.315-.4-.394-.88-.394-1.593v-1.564zM72.647 90.816h3.872v1.052h-2.617v1.226h1.8v1.052h-1.784v1.358h2.664v1.077h-3.937v-5.764zM2.84.26h1.036L6.63 7.308H5.592l-.77-2.122h-2.98l-.79 2.122H.087L2.84.26zm-.7 4.136h2.387L3.353 1.11h-.02L2.14 4.396zM7.1 2.205h.79v.81h.02c.355-.633.928-.93 1.658-.93 1.342 0 1.757.77 1.757 1.866v3.356h-.84V3.853c0-.622-.394-1.027-1.035-1.027-1.017 0-1.51.68-1.51 1.6v2.88H7.1v-5.1zM15.925 1.287h-.84V.26h.84v1.027zm-.838.918h.84v5.102h-.84V2.205zM16.988 2.205h.79v.81h.02c.355-.633.928-.93 1.658-.93 1.342 0 1.757.77 1.757 1.866v3.356h-.84V3.853c0-.622-.394-1.027-1.035-1.027-1.017 0-1.51.68-1.51 1.6v2.88h-.84v-5.1zM23.123 1.287h-.84V.26h.84v1.027zm-.84.918h.84v5.102h-.84V2.205zM25.384 2.205H26.4v.74h-1.017v3.168c0 .385.11.454.632.454h.385v.74h-.64c-.87 0-1.215-.178-1.215-1.115V2.945h-.87v-.74h.87V.675h.84v1.53zM27.94 1.287h-.838V.26h.84v1.027zm-.838.918h.84v5.102h-.84V2.205zM33.546 7.287c-.148.09-.336.138-.602.138-.434 0-.71-.237-.71-.79-.464.544-1.086.79-1.796.79-.928 0-1.688-.414-1.688-1.43 0-1.156.86-1.402 1.727-1.57.928-.178 1.717-.118 1.717-.75 0-.73-.602-.85-1.135-.85-.71 0-1.235.218-1.274.968h-.84c.05-1.263 1.027-1.707 2.162-1.707.918 0 1.914.207 1.914 1.4v2.626c0 .395 0 .573.267.573.068 0 .147-.01.256-.05v.652zm-1.362-2.615c-.326.237-.957.247-1.52.346-.553.1-1.027.296-1.027.918 0 .553.474.75.987.75 1.105 0 1.56-.69 1.56-1.155v-.858zM35.268 2.205h1.017v.74h-1.017v3.168c0 .385.11.454.632.454h.385v.74h-.64c-.87 0-1.215-.178-1.215-1.115V2.945h-.87v-.74h.87V.675h.84v1.53zM37.826 1.287h-.84V.26h.84v1.027zm-.84.918h.84v5.102h-.84V2.205zM41.195 7.307h-.898l-1.895-5.102h.937l1.43 4.253h.02l1.39-4.253h.88l-1.865 5.102zM47.79 5.69c-.226 1.124-1.035 1.736-2.18 1.736-1.628 0-2.398-1.125-2.447-2.684 0-1.53 1.007-2.655 2.398-2.655 1.807 0 2.36 1.687 2.31 2.92h-3.82c-.03.89.474 1.68 1.59 1.68.69 0 1.173-.337 1.32-.998h.83zm-.81-1.423c-.038-.8-.64-1.44-1.47-1.44-.877 0-1.4.66-1.46 1.44h2.93zM51.237.26h.84v7.047h-.84V.26zM57.513 5.69c-.227 1.124-1.036 1.736-2.18 1.736-1.63 0-2.4-1.125-2.448-2.684 0-1.53 1.007-2.655 2.398-2.655 1.806 0 2.36 1.687 2.31 2.92h-3.82c-.03.89.474 1.68 1.59 1.68.69 0 1.173-.337 1.32-.998h.83zm-.81-1.423c-.04-.8-.64-1.44-1.47-1.44-.878 0-1.4.66-1.46 1.44h2.93zM62.908 7.307h-.84v-.69h-.02c-.275.562-.927.808-1.627.808-1.568 0-2.348-1.243-2.348-2.684s.77-2.654 2.33-2.654c.522 0 1.272.197 1.647.8h.02V.26h.838v7.047zm-2.37-.622c1.126 0 1.56-.967 1.56-1.925 0-1.006-.454-1.934-1.608-1.934-1.145 0-1.53.977-1.53 1.974 0 .958.494 1.885 1.58 1.885zM66.68.26h.838v2.636h.02c.276-.563.928-.81 1.628-.81 1.57 0 2.35 1.244 2.35 2.685 0 1.442-.77 2.656-2.33 2.656-.523 0-1.273-.197-1.648-.8h-.02v.682h-.84V.26zm2.368 2.567c-1.125 0-1.56.967-1.56 1.925 0 1.006.455 1.934 1.61 1.934 1.145 0 1.53-.977 1.53-1.974 0-.958-.495-1.885-1.58-1.885zM74.135 7.988c-.385.997-.73 1.362-1.48 1.362-.197 0-.395-.02-.582-.09v-.77c.158.05.326.12.493.12.346 0 .533-.17.69-.465l.346-.868-2.023-5.073h.946l1.49 4.175h.02l1.43-4.176h.89l-2.22 5.784z"/></g></svg>