<svg version="1" xmlns="http://www.w3.org/2000/svg" viewBox="0 0 153 100" enable-background="new 0 0 153 100"><g fill="#fff"><path d="M29.97 36.332c5.512-14.37 19.452-24.596 35.738-24.596 16.283 0 30.22 10.227 35.736 24.596h10.935C106.46 16.145 87.782 1.357 65.707 1.357c-22.073 0-40.747 14.79-46.668 34.975h10.93zM101.21 64.874c-5.177 14.336-17.07 27.59-30.718 33.53 19.52-1.914 35.685-15.425 41.516-33.53H101.21zM85.242 36.332H96c-5.395-14.925-19.822-20.44-29.184-20.44 8.4 4.28 15.02 11.57 18.426 20.44zM30.482 64.874H19.597C25.825 80.48 41.937 84.11 48.403 84.11c-8.014-4.083-14.39-10.914-17.92-19.236zM.93 47.772h10.396c.984-14.27 12.087-36.9 33.4-46.18C20.872 3.933 2.03 23.578.93 47.773zM84.75 64.874c-5.818 13.73-19.422 23.388-35.246 23.388-20.243 0-36.863-15.81-38.17-35.734H.943c1.32 25.648 22.59 46.114 48.56 46.114 21.636 0 40.016-14.2 46.314-33.77h-11.07zM23.422 40.834V60.26H18.58V40.835h4.842zM30.08 47.192c.414-.446.69-.77 1.433-1.13.66-.276 1.595-.523 2.612-.523.854 0 1.818.164 2.56.577 1.515.794 1.9 2.092 1.9 4.317v9.827h-4.21v-8.09c0-1.294-.028-1.76-.194-2.145-.33-.77-1.072-1.104-1.9-1.104-2.228 0-2.228 1.79-2.228 3.58v7.76h-4.238V45.924h4.266v1.27zM41.803 41.74h4.21v4.488h2.78v2.588h-2.808v6.465c-.026.882-.026 1.623 1.1 1.623l1.516-.054v3.304c-.91.135-1.457.218-2.23.218-1.457 0-3.054-.082-3.96-1.404-.58-.854-.606-1.872-.606-3.247v-6.934H39.71V46.2h2.094v-4.46zM64.035 56.602c-.495.742-.99 1.458-1.734 2.148-1.236 1.152-3.108 2.034-5.42 2.034-4.266 0-7.265-2.724-7.265-7.428 0-3.47 1.705-7.928 7.373-7.928.855 0 3.33.084 5.177 2.065 1.87 2.006 1.98 4.816 2.035 6.44H53.936c-.028 1.788.99 3.577 3.275 3.577 2.313 0 3.11-1.512 3.632-2.53l3.193 1.622zm-4.21-5.312c-.082-.606-.193-1.403-.8-2.034-.52-.526-1.32-.802-2.063-.802-1.02 0-1.735.497-2.147.935-.576.635-.714 1.295-.85 1.9h5.86zM69.673 47.382c.938-.8 1.957-1.432 4.156-1.653v3.744l-1.402.22c-2.038.356-2.645.66-2.645 2.475v8.09h-4.238V45.87h4.128v1.512zM86.063 40.834l7.155 19.427h-5.173l-.963-3.106h-7.156l-.964 3.107H73.79L81 40.835h5.063zm-2.615 4.62c-.248.993-.523 2.01-.8 3-.41 1.46-1.154 3.744-1.595 5.203h4.927l-2.532-8.203zM105.927 56.875c-.522.828-1.098 1.74-2.253 2.562-1.104.77-2.506 1.294-4.13 1.294-2.752 0-7.126-1.65-7.126-7.515 0-4.18 2.42-7.703 7.21-7.703 1.595 0 4.32.44 6.136 3.44l-3.137 1.788c-.25-.524-.522-1.018-1.21-1.513-.413-.276-.938-.497-1.598-.497-2.285 0-3.056 2.616-3.056 4.35 0 1.9.934 4.293 3.192 4.293.22 0 1.266 0 2.148-.99.357-.416.495-.744.633-1.157l3.19 1.65zM108.486 41.74h4.21v4.488h2.78v2.588h-2.808v6.465c-.03.882-.03 1.623 1.1 1.623l1.515-.054v3.304c-.908.135-1.458.218-2.228.218-1.46 0-3.056-.082-3.963-1.404-.578-.854-.606-1.872-.606-3.247v-6.934h-2.093V46.2h2.093v-4.46zM117.206 45.87h4.184v14.39h-4.184V45.87zM117.206 41.646h4.184v2.564h-4.184v-2.564zM138.148 53.05c0 3.635-2.093 7.626-7.706 7.626-4.045 0-7.733-2.312-7.733-7.625 0-4.405 2.776-7.897 8.28-7.597 5.865.334 7.158 4.982 7.158 7.598zm-10.456-2.834c-.523.83-.718 1.816-.718 2.805 0 2.288 1.103 4.298 3.47 4.298 2.283 0 3.412-1.844 3.412-4.103 0-1.592-.387-2.833-1.183-3.6-.882-.83-1.873-.857-2.478-.8-1.212.082-1.926.495-2.503 1.4zM143.57 47.192c.408-.446.687-.77 1.43-1.13.66-.276 1.595-.523 2.612-.523.856 0 1.82.164 2.56.577 1.514.794 1.898 2.092 1.898 4.317v9.827h-4.21v-8.09c0-1.294-.026-1.76-.194-2.145-.33-.77-1.072-1.104-1.896-1.104-2.23 0-2.23 1.79-2.23 3.58v7.76h-4.237V45.924h4.267v1.27z"/></g></svg>